<?xml version="1.0" standalone="no"?>
<!DOCTYPE svg PUBLIC "-//W3C//DTD SVG 20010904//EN"
 "http://www.w3.org/TR/2001/REC-SVG-20010904/DTD/svg10.dtd">
<svg version="1.0" xmlns="http://www.w3.org/2000/svg"
 width="1280.000000pt" height="800.000000pt" viewBox="0 0 1280.000000 800.000000"
 preserveAspectRatio="xMidYMid meet">
<g transform="translate(0.000000,800.000000) scale(0.100000,-0.100000)"
fill="#8bc34a" stroke="none">
<path d="M0 7820 l0 -180 38 0 c98 0 173 89 217 255 28 111 35 105 -120 105
l-135 0 0 -180z"/>
<path d="M824 7958 c13 -81 123 -264 179 -299 40 -24 114 -25 161 -2 66 31
138 168 152 288 l7 55 -253 0 -253 0 7 -42z"/>
<path d="M1875 7963 c15 -83 107 -239 175 -296 25 -21 42 -27 81 -27 128 0
197 93 244 328 l7 32 -257 0 -257 0 7 -37z"/>
<path d="M2920 7993 c1 -45 65 -184 121 -259 57 -77 82 -94 144 -94 88 0 144
43 191 145 26 56 54 157 54 192 l0 23 -255 0 c-140 0 -255 -3 -255 -7z"/>
<path d="M3984 7958 c13 -81 123 -264 179 -299 40 -24 114 -25 161 -2 66 31
138 168 152 288 l7 55 -253 0 -253 0 7 -42z"/>
<path d="M5035 7963 c15 -83 107 -239 175 -296 25 -21 42 -27 81 -27 128 0
197 93 244 328 l7 32 -257 0 -257 0 7 -37z"/>
<path d="M6080 7993 c1 -45 65 -184 121 -259 57 -77 82 -94 144 -94 88 0 144
43 191 145 26 56 54 157 54 192 l0 23 -255 0 c-140 0 -255 -3 -255 -7z"/>
<path d="M7144 7958 c13 -81 123 -264 179 -299 40 -24 114 -25 161 -2 66 31
138 168 152 288 l7 55 -253 0 -253 0 7 -42z"/>
<path d="M8195 7963 c15 -83 107 -239 175 -296 25 -21 42 -27 81 -27 128 0
197 93 244 328 l7 32 -257 0 -257 0 7 -37z"/>
<path d="M9240 7993 c1 -45 65 -184 121 -259 57 -77 82 -94 144 -94 88 0 144
43 191 145 26 56 54 157 54 192 l0 23 -255 0 c-140 0 -255 -3 -255 -7z"/>
<path d="M10304 7958 c13 -81 123 -264 179 -299 40 -24 114 -25 161 -2 66 31
138 168 152 288 l7 55 -253 0 -253 0 7 -42z"/>
<path d="M11355 7963 c15 -83 107 -239 175 -296 25 -21 42 -27 81 -27 128 0
197 93 244 328 l7 32 -257 0 -257 0 7 -37z"/>
<path d="M12400 7993 c0 -20 31 -104 56 -153 34 -68 94 -151 130 -179 36 -28
115 -28 172 -1 l42 20 0 160 0 160 -200 0 c-110 0 -200 -3 -200 -7z"/>
<path d="M548 7833 c-9 -10 -19 -29 -23 -42 -7 -22 -11 -23 -58 -18 -28 4 -55
11 -61 17 -13 13 -46 13 -46 -1 0 -6 5 -19 10 -29 9 -17 5 -22 -25 -34 -31
-13 -34 -18 -24 -34 9 -14 8 -25 -4 -49 -50 -95 -24 -209 83 -368 42 -63 81
-95 128 -106 91 -21 167 37 222 168 27 64 34 95 38 174 5 114 -8 148 -68 179
-47 24 -56 36 -40 55 10 12 9 15 -10 15 -13 0 -24 8 -27 20 -4 15 -11 18 -29
14 -21 -5 -25 -2 -30 25 -7 35 -15 38 -36 14z"/>
<path d="M1602 7837 c-6 -7 -16 -25 -21 -41 -10 -25 -15 -27 -54 -25 -23 1
-56 11 -74 21 -35 21 -51 11 -33 -21 14 -28 14 -29 -25 -45 -32 -14 -34 -17
-23 -36 11 -16 10 -25 -6 -54 -29 -53 -20 -162 21 -248 35 -74 99 -165 137
-196 69 -53 178 -27 233 56 64 98 97 221 86 323 -7 69 -32 108 -84 129 -25 11
-30 18 -26 37 3 18 0 23 -15 23 -12 0 -22 9 -25 20 -4 15 -11 19 -24 15 -15
-5 -22 0 -30 24 -12 34 -21 38 -37 18z"/>
<path d="M2651 7824 c-11 -15 -21 -33 -21 -41 0 -21 -97 -12 -134 13 l-28 18
6 -40 c7 -39 6 -40 -29 -53 -34 -12 -35 -14 -18 -26 17 -13 17 -15 0 -45 -24
-45 -32 -130 -17 -187 18 -66 96 -199 147 -249 43 -42 99 -61 140 -48 80 27
104 51 149 149 82 178 70 337 -27 380 -34 16 -39 22 -34 42 4 16 1 23 -9 23
-9 0 -20 9 -26 20 -6 12 -19 19 -32 17 -15 -1 -23 4 -26 18 -7 35 -19 37 -41
9z"/>
<path d="M3708 7833 c-9 -10 -19 -29 -23 -42 -7 -22 -11 -23 -58 -18 -28 4
-55 11 -61 17 -13 13 -46 13 -46 -1 0 -6 5 -19 10 -29 9 -17 5 -22 -25 -34
-31 -13 -34 -18 -24 -34 9 -14 8 -25 -4 -49 -50 -95 -24 -209 83 -368 42 -63
81 -95 128 -106 91 -21 167 37 222 168 27 64 34 95 38 174 5 114 -8 148 -68
179 -47 24 -56 36 -40 55 10 12 9 15 -10 15 -13 0 -24 8 -27 20 -4 15 -11 18
-29 14 -21 -5 -25 -2 -30 25 -7 35 -15 38 -36 14z"/>
<path d="M4762 7837 c-6 -7 -16 -25 -21 -41 -10 -25 -15 -27 -54 -25 -23 1
-56 11 -74 21 -35 21 -51 11 -33 -21 14 -28 14 -29 -25 -45 -32 -14 -34 -17
-23 -36 11 -16 10 -25 -6 -54 -29 -53 -20 -162 21 -248 35 -74 99 -165 137
-196 69 -53 178 -27 233 56 64 98 97 221 86 323 -7 69 -32 108 -84 129 -25 11
-30 18 -26 37 3 18 0 23 -15 23 -12 0 -22 9 -25 20 -4 15 -11 19 -24 15 -15
-5 -22 0 -30 24 -12 34 -21 38 -37 18z"/>
<path d="M5811 7824 c-11 -15 -21 -33 -21 -41 0 -21 -97 -12 -134 13 l-28 18
6 -40 c7 -39 6 -40 -29 -53 -34 -12 -35 -14 -18 -26 17 -13 17 -15 0 -45 -24
-45 -32 -130 -17 -187 18 -66 96 -199 147 -249 43 -42 99 -61 140 -48 80 27
104 51 149 149 82 178 70 337 -27 380 -34 16 -39 22 -34 42 4 16 1 23 -9 23
-9 0 -20 9 -26 20 -6 12 -19 19 -32 17 -15 -1 -23 4 -26 18 -7 35 -19 37 -41
9z"/>
<path d="M6868 7833 c-9 -10 -19 -29 -23 -42 -7 -22 -11 -23 -58 -18 -28 4
-55 11 -61 17 -13 13 -46 13 -46 -1 0 -6 5 -19 10 -29 9 -17 5 -22 -25 -34
-31 -13 -34 -18 -24 -34 9 -14 8 -25 -4 -49 -50 -95 -24 -209 83 -368 42 -63
81 -95 128 -106 91 -21 167 37 222 168 27 64 34 95 38 174 5 114 -8 148 -68
179 -47 24 -56 36 -40 55 10 12 9 15 -10 15 -13 0 -24 8 -27 20 -4 15 -11 18
-29 14 -21 -5 -25 -2 -30 25 -7 35 -15 38 -36 14z"/>
<path d="M7922 7837 c-6 -7 -16 -25 -21 -41 -10 -25 -15 -27 -54 -25 -23 1
-56 11 -74 21 -35 21 -51 11 -33 -21 14 -28 14 -29 -25 -45 -32 -14 -34 -17
-23 -36 11 -16 10 -25 -6 -54 -29 -53 -20 -162 21 -248 35 -74 99 -165 137
-196 69 -53 178 -27 233 56 64 98 97 221 86 323 -7 69 -32 108 -84 129 -25 11
-30 18 -26 37 3 18 0 23 -15 23 -12 0 -22 9 -25 20 -4 15 -11 19 -24 15 -15
-5 -22 0 -30 24 -12 34 -21 38 -37 18z"/>
<path d="M8971 7824 c-11 -15 -21 -33 -21 -41 0 -21 -97 -12 -134 13 l-28 18
6 -40 c7 -39 6 -40 -29 -53 -34 -12 -35 -14 -18 -26 17 -13 17 -15 0 -45 -24
-45 -32 -130 -17 -187 18 -66 96 -199 147 -249 43 -42 99 -61 140 -48 80 27
104 51 149 149 82 178 70 337 -27 380 -34 16 -39 22 -34 42 4 16 1 23 -9 23
-9 0 -20 9 -26 20 -6 12 -19 19 -32 17 -15 -1 -23 4 -26 18 -7 35 -19 37 -41
9z"/>
<path d="M10028 7833 c-9 -10 -19 -29 -23 -42 -7 -22 -11 -23 -58 -18 -28 4
-55 11 -61 17 -13 13 -46 13 -46 -1 0 -6 5 -19 10 -29 9 -17 5 -22 -25 -34
-31 -13 -34 -18 -24 -34 9 -14 8 -25 -4 -49 -50 -95 -24 -209 83 -368 42 -63
81 -95 128 -106 91 -21 167 37 222 168 27 64 34 95 38 174 5 114 -8 148 -68
179 -47 24 -56 36 -40 55 10 12 9 15 -10 15 -13 0 -24 8 -27 20 -4 15 -11 18
-29 14 -21 -5 -25 -2 -30 25 -7 35 -15 38 -36 14z"/>
<path d="M11082 7837 c-6 -7 -16 -25 -21 -41 -10 -25 -15 -27 -54 -25 -23 1
-56 11 -74 21 -35 21 -51 11 -33 -21 14 -28 14 -29 -25 -45 -32 -14 -34 -17
-23 -36 11 -16 10 -25 -6 -54 -29 -53 -20 -162 21 -248 35 -74 99 -165 137
-196 69 -53 178 -27 233 56 64 98 97 221 86 323 -7 69 -32 108 -84 129 -25 11
-30 18 -26 37 3 18 0 23 -15 23 -12 0 -22 9 -25 20 -4 15 -11 19 -24 15 -15
-5 -22 0 -30 24 -12 34 -21 38 -37 18z"/>
<path d="M12131 7824 c-11 -15 -21 -33 -21 -41 0 -21 -97 -12 -134 13 l-28 18
6 -40 c7 -39 6 -40 -29 -53 -34 -12 -35 -14 -18 -26 17 -13 17 -15 0 -45 -24
-45 -32 -130 -17 -187 18 -66 96 -199 147 -249 43 -42 99 -61 140 -48 80 27
104 51 149 149 82 178 70 337 -27 380 -34 16 -39 22 -34 42 4 16 1 23 -9 23
-9 0 -20 9 -26 20 -6 12 -19 19 -32 17 -15 -1 -23 4 -26 18 -7 35 -19 37 -41
9z"/>
<path d="M30 7370 c0 -5 -7 -10 -15 -10 -13 0 -15 -42 -13 -337 l3 -338 22 -3
c12 -2 43 6 70 18 92 40 166 196 167 355 1 105 -10 131 -74 167 -33 19 -40 27
-35 46 4 17 1 22 -16 22 -12 0 -23 8 -26 18 -3 14 -11 18 -28 14 -19 -3 -24 1
-30 27 -6 28 -25 44 -25 21z"/>
<path d="M1071 7354 c-11 -15 -21 -33 -21 -40 0 -23 -91 -22 -124 2 -32 22
-39 17 -32 -21 7 -33 5 -36 -23 -46 -33 -12 -37 -19 -20 -36 8 -8 5 -22 -11
-51 -50 -88 -11 -233 104 -385 45 -60 63 -76 96 -86 46 -14 89 -8 131 18 85
52 154 226 147 373 -3 68 -6 80 -32 107 -15 16 -41 35 -57 41 -31 13 -36 29
-17 48 9 9 6 12 -14 12 -17 0 -29 7 -32 18 -4 11 -15 18 -28 18 -15 -1 -24 6
-26 19 -7 35 -19 37 -41 9z"/>
<path d="M2128 7363 c-9 -10 -19 -28 -22 -40 -5 -14 -16 -24 -29 -25 -45 -3
-82 4 -98 18 -22 20 -42 18 -36 -3 2 -10 6 -24 8 -32 3 -12 -22 -32 -55 -44
-5 -2 -3 -12 4 -24 12 -18 11 -25 -3 -46 -26 -40 -32 -127 -14 -185 24 -72 95
-190 147 -243 55 -57 103 -69 168 -43 131 52 226 367 148 487 -10 15 -21 27
-25 27 -3 0 -21 9 -39 20 -28 17 -31 23 -22 40 9 18 8 20 -15 20 -17 0 -25 5
-25 18 0 13 -8 18 -27 17 -23 0 -29 5 -31 28 -4 31 -13 34 -34 10z"/>
<path d="M3178 7358 c-10 -12 -18 -28 -18 -35 0 -34 -79 -37 -127 -6 -28 19
-47 9 -33 -17 16 -30 12 -38 -25 -50 -32 -11 -48 -30 -25 -30 15 0 12 -46 -4
-59 -25 -21 -29 -120 -7 -182 22 -65 30 -80 90 -172 78 -120 136 -147 227
-107 93 40 167 196 168 355 1 105 -10 131 -74 167 -33 19 -40 27 -35 46 4 17
1 22 -16 22 -12 0 -23 8 -26 18 -3 14 -11 18 -28 14 -19 -3 -24 1 -30 27 -8
37 -14 38 -37 9z"/>
<path d="M4231 7354 c-11 -15 -21 -33 -21 -40 0 -23 -91 -22 -124 2 -32 22
-39 17 -32 -21 7 -33 5 -36 -23 -46 -33 -12 -37 -19 -20 -36 8 -8 5 -22 -11
-51 -50 -88 -11 -233 104 -385 45 -60 63 -76 96 -86 46 -14 89 -8 131 18 85
52 154 226 147 373 -3 68 -6 80 -32 107 -15 16 -41 35 -57 41 -31 13 -36 29
-17 48 9 9 6 12 -14 12 -17 0 -29 7 -32 18 -4 11 -15 18 -28 18 -15 -1 -24 6
-26 19 -7 35 -19 37 -41 9z"/>
<path d="M5288 7363 c-9 -10 -19 -28 -22 -40 -5 -14 -16 -24 -29 -25 -45 -3
-82 4 -98 18 -22 20 -42 18 -36 -3 2 -10 6 -24 8 -32 3 -12 -22 -32 -55 -44
-5 -2 -3 -12 4 -24 12 -18 11 -25 -3 -46 -26 -40 -32 -127 -14 -185 24 -72 95
-190 147 -243 55 -57 103 -69 168 -43 131 52 226 367 148 487 -10 15 -21 27
-25 27 -3 0 -21 9 -39 20 -28 17 -31 23 -22 40 9 18 8 20 -15 20 -17 0 -25 5
-25 18 0 13 -8 18 -27 17 -23 0 -29 5 -31 28 -4 31 -13 34 -34 10z"/>
<path d="M6338 7358 c-10 -12 -18 -28 -18 -35 0 -34 -79 -37 -127 -6 -28 19
-47 9 -33 -17 16 -30 12 -38 -25 -50 -32 -11 -48 -30 -25 -30 15 0 12 -46 -4
-59 -25 -21 -29 -120 -7 -182 22 -65 30 -80 90 -172 78 -120 136 -147 227
-107 93 40 167 196 168 355 1 105 -10 131 -74 167 -33 19 -40 27 -35 46 4 17
1 22 -16 22 -12 0 -23 8 -26 18 -3 14 -11 18 -28 14 -19 -3 -24 1 -30 27 -8
37 -14 38 -37 9z"/>
<path d="M7391 7354 c-11 -15 -21 -33 -21 -40 0 -23 -91 -22 -124 2 -32 22
-39 17 -32 -21 7 -33 5 -36 -23 -46 -33 -12 -37 -19 -20 -36 8 -8 5 -22 -11
-51 -50 -88 -11 -233 104 -385 45 -60 63 -76 96 -86 46 -14 89 -8 131 18 85
52 154 226 147 373 -3 68 -6 80 -32 107 -15 16 -41 35 -57 41 -31 13 -36 29
-17 48 9 9 6 12 -14 12 -17 0 -29 7 -32 18 -4 11 -15 18 -28 18 -15 -1 -24 6
-26 19 -7 35 -19 37 -41 9z"/>
<path d="M8448 7363 c-9 -10 -19 -28 -22 -40 -5 -14 -16 -24 -29 -25 -45 -3
-82 4 -98 18 -22 20 -42 18 -36 -3 2 -10 6 -24 8 -32 3 -12 -22 -32 -55 -44
-5 -2 -3 -12 4 -24 12 -18 11 -25 -3 -46 -26 -40 -32 -127 -14 -185 24 -72 95
-190 147 -243 55 -57 103 -69 168 -43 131 52 226 367 148 487 -10 15 -21 27
-25 27 -3 0 -21 9 -39 20 -28 17 -31 23 -22 40 9 18 8 20 -15 20 -17 0 -25 5
-25 18 0 13 -8 18 -27 17 -23 0 -29 5 -31 28 -4 31 -13 34 -34 10z"/>
<path d="M9498 7358 c-10 -12 -18 -28 -18 -35 0 -34 -79 -37 -127 -6 -28 19
-47 9 -33 -17 16 -30 12 -38 -25 -50 -32 -11 -48 -30 -25 -30 15 0 12 -46 -4
-59 -25 -21 -29 -120 -7 -182 22 -65 30 -80 90 -172 78 -120 136 -147 227
-107 93 40 167 196 168 355 1 105 -10 131 -74 167 -33 19 -40 27 -35 46 4 17
1 22 -16 22 -12 0 -23 8 -26 18 -3 14 -11 18 -28 14 -19 -3 -24 1 -30 27 -8
37 -14 38 -37 9z"/>
<path d="M10551 7354 c-11 -15 -21 -33 -21 -40 0 -23 -91 -22 -124 2 -32 22
-39 17 -32 -21 7 -33 5 -36 -23 -46 -33 -12 -37 -19 -20 -36 8 -8 5 -22 -11
-51 -50 -88 -11 -233 104 -385 45 -60 63 -76 96 -86 46 -14 89 -8 131 18 85
52 154 226 147 373 -3 68 -6 80 -32 107 -15 16 -41 35 -57 41 -31 13 -36 29
-17 48 9 9 6 12 -14 12 -17 0 -29 7 -32 18 -4 11 -15 18 -28 18 -15 -1 -24 6
-26 19 -7 35 -19 37 -41 9z"/>
<path d="M11608 7363 c-9 -10 -19 -28 -22 -40 -5 -14 -16 -24 -29 -25 -45 -3
-82 4 -98 18 -22 20 -42 18 -36 -3 2 -10 6 -24 8 -32 3 -12 -22 -32 -55 -44
-5 -2 -3 -12 4 -24 12 -18 11 -25 -3 -46 -26 -40 -32 -127 -14 -185 24 -72 95
-190 147 -243 55 -57 103 -69 168 -43 131 52 226 367 148 487 -10 15 -21 27
-25 27 -3 0 -21 9 -39 20 -28 17 -31 23 -22 40 9 18 8 20 -15 20 -17 0 -25 5
-25 18 0 13 -8 18 -27 17 -23 0 -29 5 -31 28 -4 31 -13 34 -34 10z"/>
<path d="M12658 7358 c-10 -12 -18 -28 -18 -35 0 -34 -79 -37 -127 -6 -28 19
-47 9 -33 -17 16 -30 12 -38 -25 -50 -32 -11 -48 -30 -25 -30 15 0 12 -46 -4
-59 -25 -21 -29 -120 -7 -182 22 -65 30 -80 90 -172 80 -124 137 -148 236
-103 l56 25 -1 281 c-2 273 -2 280 -22 280 -11 0 -22 8 -25 18 -3 14 -11 18
-28 14 -19 -3 -24 1 -30 27 -8 37 -14 38 -37 9z"/>
<path d="M556 6897 c-32 -64 -42 -72 -89 -70 -26 1 -58 10 -72 19 -32 21 -42
12 -26 -22 13 -29 7 -44 -17 -44 -9 0 -23 -4 -30 -9 -12 -7 -12 -12 -1 -30 12
-18 11 -26 -3 -53 -52 -99 -26 -210 87 -371 54 -77 80 -96 144 -104 81 -9 126
23 181 129 40 77 60 157 60 241 0 81 -21 133 -63 156 -58 32 -61 36 -48 59 11
20 9 22 -14 22 -16 0 -25 6 -25 16 0 9 -7 14 -17 12 -25 -4 -43 10 -43 32 0
23 -16 34 -24 17z"/>
<path d="M1603 6888 c-11 -13 -23 -32 -25 -43 -3 -17 -10 -20 -57 -18 -33 2
-61 9 -72 19 -25 22 -41 10 -29 -22 13 -34 15 -32 -27 -50 -21 -9 -32 -18 -25
-21 17 -7 15 -49 -4 -79 -13 -19 -16 -42 -12 -103 5 -86 25 -135 100 -246 55
-80 87 -105 146 -112 112 -13 197 88 238 280 26 125 -2 221 -74 256 -28 14
-32 20 -28 44 5 22 2 27 -15 27 -12 0 -23 8 -26 20 -4 16 -9 18 -24 9 -19 -10
-23 -5 -40 49 -3 9 -11 6 -26 -10z"/>
<path d="M2658 6893 c-9 -10 -22 -31 -28 -47 -10 -27 -13 -28 -56 -22 -25 3
-55 13 -67 21 -33 23 -40 18 -33 -20 6 -32 5 -35 -30 -50 -35 -14 -36 -16 -18
-29 18 -14 18 -15 1 -52 -51 -106 -21 -235 87 -383 57 -77 78 -92 137 -97 44
-4 61 -1 94 18 78 46 143 187 153 330 6 99 -19 158 -80 189 -34 17 -39 24 -34
45 5 19 3 24 -13 24 -10 0 -22 7 -25 16 -4 10 -13 13 -26 9 -14 -5 -22 -1 -26
12 -18 56 -18 56 -36 36z"/>
<path d="M3716 6897 c-32 -64 -42 -72 -89 -70 -26 1 -58 10 -72 19 -32 21 -42
12 -26 -22 13 -29 7 -44 -17 -44 -9 0 -23 -4 -30 -9 -12 -7 -12 -12 -1 -30 12
-18 11 -26 -3 -53 -52 -99 -26 -210 87 -371 54 -77 80 -96 144 -104 81 -9 126
23 181 129 40 77 60 157 60 241 0 81 -21 133 -63 156 -58 32 -61 36 -48 59 11
20 9 22 -14 22 -16 0 -25 6 -25 16 0 9 -7 14 -17 12 -25 -4 -43 10 -43 32 0
23 -16 34 -24 17z"/>
<path d="M4763 6888 c-11 -13 -23 -32 -25 -43 -3 -17 -10 -20 -57 -18 -33 2
-61 9 -72 19 -25 22 -41 10 -29 -22 13 -34 15 -32 -27 -50 -21 -9 -32 -18 -25
-21 17 -7 15 -49 -4 -79 -13 -19 -16 -42 -12 -103 5 -86 25 -135 100 -246 55
-80 87 -105 146 -112 112 -13 197 88 238 280 26 125 -2 221 -74 256 -28 14
-32 20 -28 44 5 22 2 27 -15 27 -12 0 -23 8 -26 20 -4 16 -9 18 -24 9 -19 -10
-23 -5 -40 49 -3 9 -11 6 -26 -10z"/>
<path d="M5818 6893 c-9 -10 -22 -31 -28 -47 -10 -27 -13 -28 -56 -22 -25 3
-55 13 -67 21 -33 23 -40 18 -33 -20 6 -32 5 -35 -30 -50 -35 -14 -36 -16 -18
-29 18 -14 18 -15 1 -52 -51 -106 -21 -235 87 -383 57 -77 78 -92 137 -97 44
-4 61 -1 94 18 78 46 143 187 153 330 6 99 -19 158 -80 189 -34 17 -39 24 -34
45 5 19 3 24 -13 24 -10 0 -22 7 -25 16 -4 10 -13 13 -26 9 -14 -5 -22 -1 -26
12 -18 56 -18 56 -36 36z"/>
<path d="M6876 6897 c-32 -64 -42 -72 -89 -70 -26 1 -58 10 -72 19 -32 21 -42
12 -26 -22 13 -29 7 -44 -17 -44 -9 0 -23 -4 -30 -9 -12 -7 -12 -12 -1 -30 12
-18 11 -26 -3 -53 -52 -99 -26 -210 87 -371 54 -77 80 -96 144 -104 81 -9 126
23 181 129 40 77 60 157 60 241 0 81 -21 133 -63 156 -58 32 -61 36 -48 59 11
20 9 22 -14 22 -16 0 -25 6 -25 16 0 9 -7 14 -17 12 -25 -4 -43 10 -43 32 0
23 -16 34 -24 17z"/>
<path d="M7923 6888 c-11 -13 -23 -32 -25 -43 -3 -17 -10 -20 -57 -18 -33 2
-61 9 -72 19 -25 22 -41 10 -29 -22 13 -34 15 -32 -27 -50 -21 -9 -32 -18 -25
-21 17 -7 15 -49 -4 -79 -13 -19 -16 -42 -12 -103 5 -86 25 -135 100 -246 55
-80 87 -105 146 -112 112 -13 197 88 238 280 26 125 -2 221 -74 256 -28 14
-32 20 -28 44 5 22 2 27 -15 27 -12 0 -23 8 -26 20 -4 16 -9 18 -24 9 -19 -10
-23 -5 -40 49 -3 9 -11 6 -26 -10z"/>
<path d="M8978 6893 c-9 -10 -22 -31 -28 -47 -10 -27 -13 -28 -56 -22 -25 3
-55 13 -67 21 -33 23 -40 18 -33 -20 6 -32 5 -35 -30 -50 -35 -14 -36 -16 -18
-29 18 -14 18 -15 1 -52 -51 -106 -21 -235 87 -383 57 -77 78 -92 137 -97 44
-4 61 -1 94 18 78 46 143 187 153 330 6 99 -19 158 -80 189 -34 17 -39 24 -34
45 5 19 3 24 -13 24 -10 0 -22 7 -25 16 -4 10 -13 13 -26 9 -14 -5 -22 -1 -26
12 -18 56 -18 56 -36 36z"/>
<path d="M10036 6897 c-32 -64 -42 -72 -89 -70 -26 1 -58 10 -72 19 -32 21
-42 12 -26 -22 13 -29 7 -44 -17 -44 -9 0 -23 -4 -30 -9 -12 -7 -12 -12 -1
-30 12 -18 11 -26 -3 -53 -52 -99 -26 -210 87 -371 54 -77 80 -96 144 -104 81
-9 126 23 181 129 40 77 60 157 60 241 0 81 -21 133 -63 156 -58 32 -61 36
-48 59 11 20 9 22 -14 22 -16 0 -25 6 -25 16 0 9 -7 14 -17 12 -25 -4 -43 10
-43 32 0 23 -16 34 -24 17z"/>
<path d="M11083 6888 c-11 -13 -23 -32 -25 -43 -3 -17 -10 -20 -57 -18 -33 2
-61 9 -72 19 -25 22 -41 10 -29 -22 13 -34 15 -32 -27 -50 -21 -9 -32 -18 -25
-21 17 -7 15 -49 -4 -79 -13 -19 -16 -42 -12 -103 5 -86 25 -135 100 -246 55
-80 87 -105 146 -112 112 -13 197 88 238 280 26 125 -2 221 -74 256 -28 14
-32 20 -28 44 5 22 2 27 -15 27 -12 0 -23 8 -26 20 -4 16 -9 18 -24 9 -19 -10
-23 -5 -40 49 -3 9 -11 6 -26 -10z"/>
<path d="M12138 6893 c-9 -10 -22 -31 -28 -47 -10 -27 -13 -28 -56 -22 -25 3
-55 13 -67 21 -33 23 -40 18 -33 -20 6 -32 5 -35 -30 -50 -35 -14 -36 -16 -18
-29 18 -14 18 -15 1 -52 -51 -106 -21 -235 87 -383 57 -77 78 -92 137 -97 44
-4 61 -1 94 18 78 46 143 187 153 330 6 99 -19 158 -80 189 -34 17 -39 24 -34
45 5 19 3 24 -13 24 -10 0 -22 7 -25 16 -4 10 -13 13 -26 9 -14 -5 -22 -1 -26
12 -18 56 -18 56 -36 36z"/>
<path d="M22 6413 l-22 -15 0 -329 0 -329 38 0 c99 0 174 89 218 260 19 74 15
170 -9 216 -8 16 -34 40 -56 53 -32 17 -41 28 -39 44 2 13 -2 22 -10 22 -8 0
-19 8 -26 17 -7 9 -20 16 -30 15 -13 -1 -22 8 -30 29 -10 30 -12 31 -34 17z"/>
<path d="M1071 6404 c-11 -15 -21 -32 -21 -39 0 -28 -118 -23 -135 5 -15 25
-26 8 -20 -30 6 -33 4 -40 -10 -40 -9 0 -25 -5 -36 -11 -19 -10 -20 -11 -3
-23 16 -12 16 -16 -6 -59 -33 -66 -25 -161 20 -249 51 -97 108 -177 143 -199
40 -24 114 -25 161 -2 78 37 146 182 153 328 5 110 -10 148 -75 183 -33 19
-41 28 -37 43 4 10 2 19 -4 19 -5 0 -17 8 -27 18 -10 9 -27 17 -38 17 -15 0
-22 7 -24 25 -6 39 -18 44 -41 14z"/>
<path d="M2129 6412 c-9 -9 -19 -27 -23 -39 -12 -37 -80 -40 -134 -5 -29 19
-37 10 -24 -28 11 -29 9 -31 -24 -45 -31 -13 -33 -16 -23 -34 10 -16 9 -24 -6
-48 -14 -21 -19 -47 -20 -103 0 -66 4 -84 34 -145 41 -82 96 -161 141 -198 59
-50 179 -28 229 42 66 92 105 240 91 342 -8 56 -13 68 -46 97 -21 17 -43 32
-50 32 -17 0 -25 25 -11 39 6 6 8 12 4 12 -4 1 -11 3 -17 4 -5 1 -14 3 -20 4
-5 0 -10 8 -10 17 0 12 -6 15 -24 10 -25 -6 -36 7 -36 45 0 23 -10 23 -31 1z"/>
<path d="M3182 6407 c-12 -13 -22 -30 -22 -39 0 -30 -90 -31 -136 -1 -26 17
-35 8 -23 -24 12 -33 13 -31 -26 -47 -32 -14 -34 -17 -23 -35 10 -17 10 -25
-3 -48 -26 -44 -32 -115 -16 -170 30 -98 114 -236 173 -282 33 -26 116 -29
162 -6 117 59 202 339 139 461 -8 16 -34 40 -56 53 -32 17 -41 28 -39 44 2 13
-2 22 -10 22 -8 0 -19 8 -26 17 -7 9 -20 16 -30 15 -13 -1 -22 8 -30 31 l-11
33 -23 -24z"/>
<path d="M4231 6404 c-11 -15 -21 -32 -21 -39 0 -28 -118 -23 -135 5 -15 25
-26 8 -20 -30 6 -33 4 -40 -10 -40 -9 0 -25 -5 -36 -11 -19 -10 -20 -11 -3
-23 16 -12 16 -16 -6 -59 -33 -66 -25 -161 20 -249 51 -97 108 -177 143 -199
40 -24 114 -25 161 -2 78 37 146 182 153 328 5 110 -10 148 -75 183 -33 19
-41 28 -37 43 4 10 2 19 -4 19 -5 0 -17 8 -27 18 -10 9 -27 17 -38 17 -15 0
-22 7 -24 25 -6 39 -18 44 -41 14z"/>
<path d="M5289 6412 c-9 -9 -19 -27 -23 -39 -12 -37 -80 -40 -134 -5 -29 19
-37 10 -24 -28 11 -29 9 -31 -24 -45 -31 -13 -33 -16 -23 -34 10 -16 9 -24 -6
-48 -14 -21 -19 -47 -20 -103 0 -66 4 -84 34 -145 41 -82 96 -161 141 -198 59
-50 179 -28 229 42 66 92 105 240 91 342 -8 56 -13 68 -46 97 -21 17 -43 32
-50 32 -17 0 -25 25 -11 39 6 6 8 12 4 12 -4 1 -11 3 -17 4 -5 1 -14 3 -20 4
-5 0 -10 8 -10 17 0 12 -6 15 -24 10 -25 -6 -36 7 -36 45 0 23 -10 23 -31 1z"/>
<path d="M6342 6407 c-12 -13 -22 -30 -22 -39 0 -30 -90 -31 -136 -1 -26 17
-35 8 -23 -24 12 -33 13 -31 -26 -47 -32 -14 -34 -17 -23 -35 10 -17 10 -25
-3 -48 -26 -44 -32 -115 -16 -170 30 -98 114 -236 173 -282 33 -26 116 -29
162 -6 117 59 202 339 139 461 -8 16 -34 40 -56 53 -32 17 -41 28 -39 44 2 13
-2 22 -10 22 -8 0 -19 8 -26 17 -7 9 -20 16 -30 15 -13 -1 -22 8 -30 31 l-11
33 -23 -24z"/>
<path d="M7391 6404 c-11 -15 -21 -32 -21 -39 0 -28 -118 -23 -135 5 -15 25
-26 8 -20 -30 6 -33 4 -40 -10 -40 -9 0 -25 -5 -36 -11 -19 -10 -20 -11 -3
-23 16 -12 16 -16 -6 -59 -33 -66 -25 -161 20 -249 51 -97 108 -177 143 -199
40 -24 114 -25 161 -2 78 37 146 182 153 328 5 110 -10 148 -75 183 -33 19
-41 28 -37 43 4 10 2 19 -4 19 -5 0 -17 8 -27 18 -10 9 -27 17 -38 17 -15 0
-22 7 -24 25 -6 39 -18 44 -41 14z"/>
<path d="M8449 6412 c-9 -9 -19 -27 -23 -39 -12 -37 -80 -40 -134 -5 -29 19
-37 10 -24 -28 11 -29 9 -31 -24 -45 -31 -13 -33 -16 -23 -34 10 -16 9 -24 -6
-48 -14 -21 -19 -47 -20 -103 0 -66 4 -84 34 -145 41 -82 96 -161 141 -198 59
-50 179 -28 229 42 66 92 105 240 91 342 -8 56 -13 68 -46 97 -21 17 -43 32
-50 32 -17 0 -25 25 -11 39 6 6 8 12 4 12 -4 1 -11 3 -17 4 -5 1 -14 3 -20 4
-5 0 -10 8 -10 17 0 12 -6 15 -24 10 -25 -6 -36 7 -36 45 0 23 -10 23 -31 1z"/>
<path d="M9502 6407 c-12 -13 -22 -30 -22 -39 0 -30 -90 -31 -136 -1 -26 17
-35 8 -23 -24 12 -33 13 -31 -26 -47 -32 -14 -34 -17 -23 -35 10 -17 10 -25
-3 -48 -26 -44 -32 -115 -16 -170 30 -98 114 -236 173 -282 33 -26 116 -29
162 -6 117 59 202 339 139 461 -8 16 -34 40 -56 53 -32 17 -41 28 -39 44 2 13
-2 22 -10 22 -8 0 -19 8 -26 17 -7 9 -20 16 -30 15 -13 -1 -22 8 -30 31 l-11
33 -23 -24z"/>
<path d="M10551 6404 c-11 -15 -21 -32 -21 -39 0 -28 -118 -23 -135 5 -15 25
-26 8 -20 -30 6 -33 4 -40 -10 -40 -9 0 -25 -5 -36 -11 -19 -10 -20 -11 -3
-23 16 -12 16 -16 -6 -59 -33 -66 -25 -161 20 -249 51 -97 108 -177 143 -199
40 -24 114 -25 161 -2 78 37 146 182 153 328 5 110 -10 148 -75 183 -33 19
-41 28 -37 43 4 10 2 19 -4 19 -5 0 -17 8 -27 18 -10 9 -27 17 -38 17 -15 0
-22 7 -24 25 -6 39 -18 44 -41 14z"/>
<path d="M11609 6412 c-9 -9 -19 -27 -23 -39 -12 -37 -80 -40 -134 -5 -29 19
-37 10 -24 -28 11 -29 9 -31 -24 -45 -31 -13 -33 -16 -23 -34 10 -16 9 -24 -6
-48 -14 -21 -19 -47 -20 -103 0 -66 4 -84 34 -145 41 -82 96 -161 141 -198 59
-50 179 -28 229 42 66 92 105 240 91 342 -8 56 -13 68 -46 97 -21 17 -43 32
-50 32 -17 0 -25 25 -11 39 6 6 8 12 4 12 -4 1 -11 3 -17 4 -5 1 -14 3 -20 4
-5 0 -10 8 -10 17 0 12 -6 15 -24 10 -25 -6 -36 7 -36 45 0 23 -10 23 -31 1z"/>
<path d="M12662 6407 c-12 -13 -22 -30 -22 -39 0 -30 -90 -31 -136 -1 -26 17
-35 8 -23 -24 12 -33 13 -31 -26 -47 -32 -14 -34 -17 -23 -35 10 -17 10 -25
-3 -48 -26 -44 -32 -115 -16 -170 30 -98 114 -236 173 -282 36 -28 115 -28
172 -1 l43 21 -1 280 c-1 235 -4 280 -16 275 -7 -3 -19 3 -27 14 -7 10 -21 18
-31 17 -13 -1 -22 8 -30 31 l-11 33 -23 -24z"/>
<path d="M548 5933 c-9 -10 -19 -29 -23 -42 -7 -22 -11 -23 -58 -18 -28 4 -55
11 -61 17 -13 13 -46 13 -46 -1 0 -6 5 -19 10 -29 9 -17 5 -22 -25 -34 -31
-13 -34 -18 -24 -34 9 -14 8 -25 -4 -49 -50 -95 -24 -209 83 -368 42 -63 81
-95 128 -106 91 -21 167 37 222 168 27 64 34 95 38 174 5 114 -8 148 -68 179
-47 24 -56 36 -40 55 10 12 9 15 -10 15 -13 0 -24 8 -27 20 -4 15 -11 18 -29
14 -21 -5 -25 -2 -30 25 -7 35 -15 38 -36 14z"/>
<path d="M1602 5937 c-6 -7 -16 -25 -21 -41 -10 -25 -15 -27 -54 -25 -23 1
-56 11 -74 21 -35 21 -51 11 -33 -21 14 -28 14 -29 -25 -45 -32 -14 -34 -17
-23 -36 11 -16 10 -25 -6 -54 -29 -53 -20 -162 21 -248 35 -74 99 -165 137
-196 69 -53 178 -27 233 56 64 98 97 221 86 323 -7 69 -32 108 -84 129 -25 11
-30 18 -26 37 3 18 0 23 -15 23 -12 0 -22 9 -25 20 -4 15 -11 19 -24 15 -15
-5 -22 0 -30 24 -12 34 -21 38 -37 18z"/>
<path d="M2651 5924 c-11 -15 -21 -33 -21 -41 0 -21 -97 -12 -134 13 l-28 18
6 -40 c7 -39 6 -40 -29 -53 -34 -12 -35 -14 -18 -26 17 -13 17 -15 0 -45 -24
-45 -32 -130 -17 -187 18 -66 96 -199 147 -249 43 -42 99 -61 140 -48 80 27
104 51 149 149 82 178 70 337 -27 380 -34 16 -39 22 -34 42 4 16 1 23 -9 23
-9 0 -20 9 -26 20 -6 12 -19 19 -32 17 -15 -1 -23 4 -26 18 -7 35 -19 37 -41
9z"/>
<path d="M3708 5933 c-9 -10 -19 -29 -23 -42 -7 -22 -11 -23 -58 -18 -28 4
-55 11 -61 17 -13 13 -46 13 -46 -1 0 -6 5 -19 10 -29 9 -17 5 -22 -25 -34
-31 -13 -34 -18 -24 -34 9 -14 8 -25 -4 -49 -50 -95 -24 -209 83 -368 42 -63
81 -95 128 -106 91 -21 167 37 222 168 27 64 34 95 38 174 5 114 -8 148 -68
179 -47 24 -56 36 -40 55 10 12 9 15 -10 15 -13 0 -24 8 -27 20 -4 15 -11 18
-29 14 -21 -5 -25 -2 -30 25 -7 35 -15 38 -36 14z"/>
<path d="M4762 5937 c-6 -7 -16 -25 -21 -41 -10 -25 -15 -27 -54 -25 -23 1
-56 11 -74 21 -35 21 -51 11 -33 -21 14 -28 14 -29 -25 -45 -32 -14 -34 -17
-23 -36 11 -16 10 -25 -6 -54 -29 -53 -20 -162 21 -248 35 -74 99 -165 137
-196 69 -53 178 -27 233 56 64 98 97 221 86 323 -7 69 -32 108 -84 129 -25 11
-30 18 -26 37 3 18 0 23 -15 23 -12 0 -22 9 -25 20 -4 15 -11 19 -24 15 -15
-5 -22 0 -30 24 -12 34 -21 38 -37 18z"/>
<path d="M5811 5924 c-11 -15 -21 -33 -21 -41 0 -21 -97 -12 -134 13 l-28 18
6 -40 c7 -39 6 -40 -29 -53 -34 -12 -35 -14 -18 -26 17 -13 17 -15 0 -45 -24
-45 -32 -130 -17 -187 18 -66 96 -199 147 -249 43 -42 99 -61 140 -48 80 27
104 51 149 149 82 178 70 337 -27 380 -34 16 -39 22 -34 42 4 16 1 23 -9 23
-9 0 -20 9 -26 20 -6 12 -19 19 -32 17 -15 -1 -23 4 -26 18 -7 35 -19 37 -41
9z"/>
<path d="M6868 5933 c-9 -10 -19 -29 -23 -42 -7 -22 -11 -23 -58 -18 -28 4
-55 11 -61 17 -13 13 -46 13 -46 -1 0 -6 5 -19 10 -29 9 -17 5 -22 -25 -34
-31 -13 -34 -18 -24 -34 9 -14 8 -25 -4 -49 -50 -95 -24 -209 83 -368 42 -63
81 -95 128 -106 91 -21 167 37 222 168 27 64 34 95 38 174 5 114 -8 148 -68
179 -47 24 -56 36 -40 55 10 12 9 15 -10 15 -13 0 -24 8 -27 20 -4 15 -11 18
-29 14 -21 -5 -25 -2 -30 25 -7 35 -15 38 -36 14z"/>
<path d="M7922 5937 c-6 -7 -16 -25 -21 -41 -10 -25 -15 -27 -54 -25 -23 1
-56 11 -74 21 -35 21 -51 11 -33 -21 14 -28 14 -29 -25 -45 -32 -14 -34 -17
-23 -36 11 -16 10 -25 -6 -54 -29 -53 -20 -162 21 -248 35 -74 99 -165 137
-196 69 -53 178 -27 233 56 64 98 97 221 86 323 -7 69 -32 108 -84 129 -25 11
-30 18 -26 37 3 18 0 23 -15 23 -12 0 -22 9 -25 20 -4 15 -11 19 -24 15 -15
-5 -22 0 -30 24 -12 34 -21 38 -37 18z"/>
<path d="M8971 5924 c-11 -15 -21 -33 -21 -41 0 -21 -97 -12 -134 13 l-28 18
6 -40 c7 -39 6 -40 -29 -53 -34 -12 -35 -14 -18 -26 17 -13 17 -15 0 -45 -24
-45 -32 -130 -17 -187 18 -66 96 -199 147 -249 43 -42 99 -61 140 -48 80 27
104 51 149 149 82 178 70 337 -27 380 -34 16 -39 22 -34 42 4 16 1 23 -9 23
-9 0 -20 9 -26 20 -6 12 -19 19 -32 17 -15 -1 -23 4 -26 18 -7 35 -19 37 -41
9z"/>
<path d="M10028 5933 c-9 -10 -19 -29 -23 -42 -7 -22 -11 -23 -58 -18 -28 4
-55 11 -61 17 -13 13 -46 13 -46 -1 0 -6 5 -19 10 -29 9 -17 5 -22 -25 -34
-31 -13 -34 -18 -24 -34 9 -14 8 -25 -4 -49 -50 -95 -24 -209 83 -368 42 -63
81 -95 128 -106 91 -21 167 37 222 168 27 64 34 95 38 174 5 114 -8 148 -68
179 -47 24 -56 36 -40 55 10 12 9 15 -10 15 -13 0 -24 8 -27 20 -4 15 -11 18
-29 14 -21 -5 -25 -2 -30 25 -7 35 -15 38 -36 14z"/>
<path d="M11082 5937 c-6 -7 -16 -25 -21 -41 -10 -25 -15 -27 -54 -25 -23 1
-56 11 -74 21 -35 21 -51 11 -33 -21 14 -28 14 -29 -25 -45 -32 -14 -34 -17
-23 -36 11 -16 10 -25 -6 -54 -29 -53 -20 -162 21 -248 35 -74 99 -165 137
-196 69 -53 178 -27 233 56 64 98 97 221 86 323 -7 69 -32 108 -84 129 -25 11
-30 18 -26 37 3 18 0 23 -15 23 -12 0 -22 9 -25 20 -4 15 -11 19 -24 15 -15
-5 -22 0 -30 24 -12 34 -21 38 -37 18z"/>
<path d="M12131 5924 c-11 -15 -21 -33 -21 -41 0 -21 -97 -12 -134 13 l-28 18
6 -40 c7 -39 6 -40 -29 -53 -34 -12 -35 -14 -18 -26 17 -13 17 -15 0 -45 -24
-45 -32 -130 -17 -187 18 -66 96 -199 147 -249 43 -42 99 -61 140 -48 80 27
104 51 149 149 82 178 70 337 -27 380 -34 16 -39 22 -34 42 4 16 1 23 -9 23
-9 0 -20 9 -26 20 -6 12 -19 19 -32 17 -15 -1 -23 4 -26 18 -7 35 -19 37 -41
9z"/>
<path d="M30 5470 c0 -5 -7 -10 -15 -10 -13 0 -15 -42 -13 -337 l3 -338 22 -3
c12 -2 44 6 70 18 95 40 168 198 168 360 0 100 -13 127 -75 162 -33 19 -40 27
-35 46 4 17 1 22 -16 22 -12 0 -23 8 -26 18 -3 14 -11 18 -28 14 -19 -3 -24 1
-30 27 -6 28 -25 44 -25 21z"/>
<path d="M1071 5454 c-11 -15 -21 -33 -21 -40 0 -23 -91 -22 -124 2 -32 22
-39 17 -32 -21 7 -33 5 -36 -23 -46 -33 -12 -37 -19 -20 -36 8 -8 5 -22 -11
-51 -19 -33 -22 -51 -18 -110 3 -57 11 -85 45 -153 51 -102 109 -179 148 -199
76 -37 167 -7 220 73 57 87 79 167 80 284 0 99 -1 103 -29 132 -15 16 -41 35
-57 41 -31 13 -36 29 -17 48 9 9 6 12 -14 12 -17 0 -29 7 -32 18 -4 11 -15 18
-28 18 -15 -1 -24 6 -26 19 -7 35 -19 37 -41 9z"/>
<path d="M2128 5463 c-9 -10 -19 -28 -22 -40 -5 -14 -16 -24 -29 -25 -45 -3
-82 4 -98 18 -22 20 -42 18 -36 -3 2 -10 6 -24 8 -32 3 -12 -22 -32 -55 -44
-5 -2 -3 -12 4 -24 12 -18 11 -25 -5 -50 -15 -21 -19 -46 -19 -103 -1 -64 4
-85 32 -143 37 -76 94 -160 132 -194 58 -52 145 -51 209 3 72 60 138 262 122
374 -6 50 -34 110 -50 110 -3 0 -21 9 -39 20 -28 17 -31 23 -22 40 9 18 8 20
-15 20 -17 0 -25 5 -25 18 0 13 -8 18 -27 17 -23 0 -29 5 -31 28 -4 31 -13 34
-34 10z"/>
<path d="M3178 5458 c-10 -12 -18 -28 -18 -35 0 -34 -79 -37 -127 -6 -28 19
-47 9 -33 -17 16 -30 12 -38 -25 -50 -32 -11 -48 -30 -25 -30 15 0 12 -46 -4
-59 -7 -6 -16 -37 -20 -69 -10 -84 32 -196 115 -308 73 -99 130 -121 216 -84
95 40 168 198 168 360 0 100 -13 127 -75 162 -33 19 -40 27 -35 46 4 17 1 22
-16 22 -12 0 -23 8 -26 18 -3 14 -11 18 -28 14 -19 -3 -24 1 -30 27 -8 37 -14
38 -37 9z"/>
<path d="M4231 5454 c-11 -15 -21 -33 -21 -40 0 -23 -91 -22 -124 2 -32 22
-39 17 -32 -21 7 -33 5 -36 -23 -46 -33 -12 -37 -19 -20 -36 8 -8 5 -22 -11
-51 -19 -33 -22 -51 -18 -110 3 -57 11 -85 45 -153 51 -102 109 -179 148 -199
76 -37 167 -7 220 73 57 87 79 167 80 284 0 99 -1 103 -29 132 -15 16 -41 35
-57 41 -31 13 -36 29 -17 48 9 9 6 12 -14 12 -17 0 -29 7 -32 18 -4 11 -15 18
-28 18 -15 -1 -24 6 -26 19 -7 35 -19 37 -41 9z"/>
<path d="M5288 5463 c-9 -10 -19 -28 -22 -40 -5 -14 -16 -24 -29 -25 -45 -3
-82 4 -98 18 -22 20 -42 18 -36 -3 2 -10 6 -24 8 -32 3 -12 -22 -32 -55 -44
-5 -2 -3 -12 4 -24 12 -18 11 -25 -5 -50 -15 -21 -19 -46 -19 -103 -1 -64 4
-85 32 -143 37 -76 94 -160 132 -194 58 -52 145 -51 209 3 72 60 138 262 122
374 -6 50 -34 110 -50 110 -3 0 -21 9 -39 20 -28 17 -31 23 -22 40 9 18 8 20
-15 20 -17 0 -25 5 -25 18 0 13 -8 18 -27 17 -23 0 -29 5 -31 28 -4 31 -13 34
-34 10z"/>
<path d="M6338 5458 c-10 -12 -18 -28 -18 -35 0 -34 -79 -37 -127 -6 -28 19
-47 9 -33 -17 16 -30 12 -38 -25 -50 -32 -11 -48 -30 -25 -30 15 0 12 -46 -4
-59 -7 -6 -16 -37 -20 -69 -10 -84 32 -196 115 -308 73 -99 130 -121 216 -84
95 40 168 198 168 360 0 100 -13 127 -75 162 -33 19 -40 27 -35 46 4 17 1 22
-16 22 -12 0 -23 8 -26 18 -3 14 -11 18 -28 14 -19 -3 -24 1 -30 27 -8 37 -14
38 -37 9z"/>
<path d="M7391 5454 c-11 -15 -21 -33 -21 -40 0 -23 -91 -22 -124 2 -32 22
-39 17 -32 -21 7 -33 5 -36 -23 -46 -33 -12 -37 -19 -20 -36 8 -8 5 -22 -11
-51 -19 -33 -22 -51 -18 -110 3 -57 11 -85 45 -153 51 -102 109 -179 148 -199
76 -37 167 -7 220 73 57 87 79 167 80 284 0 99 -1 103 -29 132 -15 16 -41 35
-57 41 -31 13 -36 29 -17 48 9 9 6 12 -14 12 -17 0 -29 7 -32 18 -4 11 -15 18
-28 18 -15 -1 -24 6 -26 19 -7 35 -19 37 -41 9z"/>
<path d="M8448 5463 c-9 -10 -19 -28 -22 -40 -5 -14 -16 -24 -29 -25 -45 -3
-82 4 -98 18 -22 20 -42 18 -36 -3 2 -10 6 -24 8 -32 3 -12 -22 -32 -55 -44
-5 -2 -3 -12 4 -24 12 -18 11 -25 -5 -50 -15 -21 -19 -46 -19 -103 -1 -64 4
-85 32 -143 37 -76 94 -160 132 -194 58 -52 145 -51 209 3 72 60 138 262 122
374 -6 50 -34 110 -50 110 -3 0 -21 9 -39 20 -28 17 -31 23 -22 40 9 18 8 20
-15 20 -17 0 -25 5 -25 18 0 13 -8 18 -27 17 -23 0 -29 5 -31 28 -4 31 -13 34
-34 10z"/>
<path d="M9498 5458 c-10 -12 -18 -28 -18 -35 0 -34 -79 -37 -127 -6 -28 19
-47 9 -33 -17 16 -30 12 -38 -25 -50 -32 -11 -48 -30 -25 -30 15 0 12 -46 -4
-59 -7 -6 -16 -37 -20 -69 -10 -84 32 -196 115 -308 73 -99 130 -121 216 -84
95 40 168 198 168 360 0 100 -13 127 -75 162 -33 19 -40 27 -35 46 4 17 1 22
-16 22 -12 0 -23 8 -26 18 -3 14 -11 18 -28 14 -19 -3 -24 1 -30 27 -8 37 -14
38 -37 9z"/>
<path d="M10551 5454 c-11 -15 -21 -33 -21 -40 0 -23 -91 -22 -124 2 -32 22
-39 17 -32 -21 7 -33 5 -36 -23 -46 -33 -12 -37 -19 -20 -36 8 -8 5 -22 -11
-51 -19 -33 -22 -51 -18 -110 3 -57 11 -85 45 -153 51 -102 109 -179 148 -199
76 -37 167 -7 220 73 57 87 79 167 80 284 0 99 -1 103 -29 132 -15 16 -41 35
-57 41 -31 13 -36 29 -17 48 9 9 6 12 -14 12 -17 0 -29 7 -32 18 -4 11 -15 18
-28 18 -15 -1 -24 6 -26 19 -7 35 -19 37 -41 9z"/>
<path d="M11608 5463 c-9 -10 -19 -28 -22 -40 -5 -14 -16 -24 -29 -25 -45 -3
-82 4 -98 18 -22 20 -42 18 -36 -3 2 -10 6 -24 8 -32 3 -12 -22 -32 -55 -44
-5 -2 -3 -12 4 -24 12 -18 11 -25 -5 -50 -15 -21 -19 -46 -19 -103 -1 -64 4
-85 32 -143 37 -76 94 -160 132 -194 58 -52 145 -51 209 3 72 60 138 262 122
374 -6 50 -34 110 -50 110 -3 0 -21 9 -39 20 -28 17 -31 23 -22 40 9 18 8 20
-15 20 -17 0 -25 5 -25 18 0 13 -8 18 -27 17 -23 0 -29 5 -31 28 -4 31 -13 34
-34 10z"/>
<path d="M12658 5458 c-10 -12 -18 -28 -18 -35 0 -34 -79 -37 -127 -6 -28 19
-47 9 -33 -17 16 -30 12 -38 -25 -50 -32 -11 -48 -30 -25 -30 15 0 12 -46 -4
-59 -7 -6 -16 -37 -20 -69 -10 -84 32 -196 115 -308 75 -101 126 -120 221 -82
l59 23 -1 282 c-2 277 -2 283 -22 283 -11 0 -22 8 -25 18 -3 14 -11 18 -28 14
-19 -3 -24 1 -30 27 -8 37 -14 38 -37 9z"/>
<path d="M547 4982 c-10 -10 -17 -26 -17 -35 0 -9 -5 -19 -11 -23 -22 -13 -86
-7 -117 12 -37 21 -50 14 -34 -21 11 -24 9 -27 -23 -42 -33 -16 -46 -33 -25
-33 15 0 12 -32 -4 -56 -24 -34 -30 -125 -12 -178 32 -95 124 -239 171 -270
40 -26 115 -32 156 -11 44 22 63 45 104 129 43 86 58 159 53 252 -3 64 -7 77
-32 103 -16 16 -41 35 -57 41 -33 14 -33 14 -19 41 9 16 7 19 -11 19 -12 0
-23 8 -26 19 -3 14 -13 19 -31 18 -23 -2 -28 3 -30 26 -4 32 -13 34 -35 9z"/>
<path d="M1603 4978 c-13 -13 -23 -32 -23 -41 0 -27 -86 -27 -126 0 -29 19
-48 9 -34 -17 16 -30 12 -38 -26 -50 -26 -9 -33 -15 -25 -23 16 -16 14 -44 -5
-73 -26 -39 -15 -166 20 -235 39 -76 104 -170 137 -197 41 -34 114 -40 165
-14 117 60 200 341 137 464 -7 15 -32 37 -54 49 -35 17 -40 24 -35 45 5 20 3
24 -15 24 -12 0 -23 8 -26 18 -3 13 -11 18 -27 15 -18 -4 -24 1 -32 27 l-9 32
-22 -24z"/>
<path d="M2651 4974 c-11 -15 -21 -33 -21 -40 0 -23 -94 -22 -121 2 -28 25
-42 17 -35 -20 6 -31 4 -35 -24 -44 -32 -12 -37 -21 -19 -39 8 -8 6 -20 -6
-42 -50 -97 -18 -234 89 -380 57 -77 78 -92 137 -97 44 -4 61 -1 94 18 85 50
150 201 150 350 0 99 -14 127 -78 161 -39 20 -45 35 -25 55 9 9 6 12 -14 12
-17 0 -29 7 -32 18 -4 11 -15 18 -28 18 -15 -1 -24 6 -26 19 -7 35 -19 37 -41
9z"/>
<path d="M3707 4982 c-10 -10 -17 -26 -17 -35 0 -9 -5 -19 -11 -23 -22 -13
-86 -7 -117 12 -37 21 -50 14 -34 -21 11 -24 9 -27 -23 -42 -33 -16 -46 -33
-25 -33 15 0 12 -32 -4 -56 -24 -34 -30 -125 -12 -178 32 -95 124 -239 171
-270 40 -26 115 -32 156 -11 44 22 63 45 104 129 43 86 58 159 53 252 -3 64
-7 77 -32 103 -16 16 -41 35 -57 41 -33 14 -33 14 -19 41 9 16 7 19 -11 19
-12 0 -23 8 -26 19 -3 14 -13 19 -31 18 -23 -2 -28 3 -30 26 -4 32 -13 34 -35
9z"/>
<path d="M4763 4978 c-13 -13 -23 -32 -23 -41 0 -27 -86 -27 -126 0 -29 19
-48 9 -34 -17 16 -30 12 -38 -26 -50 -26 -9 -33 -15 -25 -23 16 -16 14 -44 -5
-73 -26 -39 -15 -166 20 -235 39 -76 104 -170 137 -197 41 -34 114 -40 165
-14 117 60 200 341 137 464 -7 15 -32 37 -54 49 -35 17 -40 24 -35 45 5 20 3
24 -15 24 -12 0 -23 8 -26 18 -3 13 -11 18 -27 15 -18 -4 -24 1 -32 27 l-9 32
-22 -24z"/>
<path d="M5811 4974 c-11 -15 -21 -33 -21 -40 0 -23 -94 -22 -121 2 -28 25
-42 17 -35 -20 6 -31 4 -35 -24 -44 -32 -12 -37 -21 -19 -39 8 -8 6 -20 -6
-42 -50 -97 -18 -234 89 -380 57 -77 78 -92 137 -97 44 -4 61 -1 94 18 85 50
150 201 150 350 0 99 -14 127 -78 161 -39 20 -45 35 -25 55 9 9 6 12 -14 12
-17 0 -29 7 -32 18 -4 11 -15 18 -28 18 -15 -1 -24 6 -26 19 -7 35 -19 37 -41
9z"/>
<path d="M6867 4982 c-10 -10 -17 -26 -17 -35 0 -9 -5 -19 -11 -23 -22 -13
-86 -7 -117 12 -37 21 -50 14 -34 -21 11 -24 9 -27 -23 -42 -33 -16 -46 -33
-25 -33 15 0 12 -32 -4 -56 -24 -34 -30 -125 -12 -178 32 -95 124 -239 171
-270 40 -26 115 -32 156 -11 44 22 63 45 104 129 43 86 58 159 53 252 -3 64
-7 77 -32 103 -16 16 -41 35 -57 41 -33 14 -33 14 -19 41 9 16 7 19 -11 19
-12 0 -23 8 -26 19 -3 14 -13 19 -31 18 -23 -2 -28 3 -30 26 -4 32 -13 34 -35
9z"/>
<path d="M7923 4978 c-13 -13 -23 -32 -23 -41 0 -27 -86 -27 -126 0 -29 19
-48 9 -34 -17 16 -30 12 -38 -26 -50 -26 -9 -33 -15 -25 -23 16 -16 14 -44 -5
-73 -26 -39 -15 -166 20 -235 39 -76 104 -170 137 -197 41 -34 114 -40 165
-14 117 60 200 341 137 464 -7 15 -32 37 -54 49 -35 17 -40 24 -35 45 5 20 3
24 -15 24 -12 0 -23 8 -26 18 -3 13 -11 18 -27 15 -18 -4 -24 1 -32 27 l-9 32
-22 -24z"/>
<path d="M8971 4974 c-11 -15 -21 -33 -21 -40 0 -23 -94 -22 -121 2 -28 25
-42 17 -35 -20 6 -31 4 -35 -24 -44 -32 -12 -37 -21 -19 -39 8 -8 6 -20 -6
-42 -50 -97 -18 -234 89 -380 57 -77 78 -92 137 -97 44 -4 61 -1 94 18 85 50
150 201 150 350 0 99 -14 127 -78 161 -39 20 -45 35 -25 55 9 9 6 12 -14 12
-17 0 -29 7 -32 18 -4 11 -15 18 -28 18 -15 -1 -24 6 -26 19 -7 35 -19 37 -41
9z"/>
<path d="M10027 4982 c-10 -10 -17 -26 -17 -35 0 -9 -5 -19 -11 -23 -22 -13
-86 -7 -117 12 -37 21 -50 14 -34 -21 11 -24 9 -27 -23 -42 -33 -16 -46 -33
-25 -33 15 0 12 -32 -4 -56 -24 -34 -30 -125 -12 -178 32 -95 124 -239 171
-270 40 -26 115 -32 156 -11 44 22 63 45 104 129 43 86 58 159 53 252 -3 64
-7 77 -32 103 -16 16 -41 35 -57 41 -33 14 -33 14 -19 41 9 16 7 19 -11 19
-12 0 -23 8 -26 19 -3 14 -13 19 -31 18 -23 -2 -28 3 -30 26 -4 32 -13 34 -35
9z"/>
<path d="M11083 4978 c-13 -13 -23 -32 -23 -41 0 -27 -86 -27 -126 0 -29 19
-48 9 -34 -17 16 -30 12 -38 -26 -50 -26 -9 -33 -15 -25 -23 16 -16 14 -44 -5
-73 -26 -39 -15 -166 20 -235 39 -76 104 -170 137 -197 41 -34 114 -40 165
-14 117 60 200 341 137 464 -7 15 -32 37 -54 49 -35 17 -40 24 -35 45 5 20 3
24 -15 24 -12 0 -23 8 -26 18 -3 13 -11 18 -27 15 -18 -4 -24 1 -32 27 l-9 32
-22 -24z"/>
<path d="M12131 4974 c-11 -15 -21 -33 -21 -40 0 -23 -94 -22 -121 2 -28 25
-42 17 -35 -20 6 -31 4 -35 -24 -44 -32 -12 -37 -21 -19 -39 8 -8 6 -20 -6
-42 -50 -97 -18 -234 89 -380 57 -77 78 -92 137 -97 44 -4 61 -1 94 18 85 50
150 201 150 350 0 99 -14 127 -78 161 -39 20 -45 35 -25 55 9 9 6 12 -14 12
-17 0 -29 7 -32 18 -4 11 -15 18 -28 18 -15 -1 -24 6 -26 19 -7 35 -19 37 -41
9z"/>
<path d="M22 4513 l-22 -15 0 -329 0 -329 38 0 c99 0 174 89 218 260 19 74 15
170 -9 216 -8 16 -34 40 -56 53 -32 17 -41 28 -39 44 2 13 -2 22 -10 22 -8 0
-19 8 -26 17 -7 9 -20 16 -30 15 -13 -1 -22 8 -30 29 -10 30 -12 31 -34 17z"/>
<path d="M1071 4504 c-11 -15 -21 -32 -21 -39 0 -28 -118 -23 -135 5 -15 25
-26 8 -20 -30 6 -33 4 -40 -10 -40 -9 0 -25 -5 -36 -11 -19 -10 -20 -11 -3
-23 16 -12 16 -16 -6 -59 -33 -66 -25 -161 20 -249 51 -97 108 -177 143 -199
40 -24 114 -25 161 -2 78 37 146 182 153 328 5 110 -10 148 -75 183 -33 19
-41 28 -37 43 4 10 2 19 -4 19 -5 0 -17 8 -27 18 -10 9 -27 17 -38 17 -15 0
-22 7 -24 25 -6 39 -18 44 -41 14z"/>
<path d="M2129 4512 c-9 -9 -19 -27 -23 -39 -12 -37 -80 -40 -134 -5 -29 19
-37 10 -24 -28 11 -29 9 -31 -24 -45 -31 -13 -33 -16 -23 -34 10 -16 9 -24 -6
-48 -14 -21 -19 -47 -20 -103 0 -66 4 -84 34 -145 41 -82 96 -161 141 -198 59
-50 179 -28 229 42 66 92 105 240 91 342 -8 56 -13 68 -46 97 -21 17 -43 32
-50 32 -17 0 -25 25 -11 39 6 6 8 12 4 12 -4 1 -11 3 -17 4 -5 1 -14 3 -20 4
-5 0 -10 8 -10 17 0 12 -6 15 -24 10 -25 -6 -36 7 -36 45 0 23 -10 23 -31 1z"/>
<path d="M3182 4507 c-12 -13 -22 -30 -22 -39 0 -30 -90 -31 -136 -1 -26 17
-35 8 -23 -24 12 -33 13 -31 -26 -47 -32 -14 -34 -17 -23 -35 10 -17 10 -25
-3 -48 -26 -44 -32 -115 -16 -170 30 -98 114 -236 173 -282 33 -26 116 -29
162 -6 117 59 202 339 139 461 -8 16 -34 40 -56 53 -32 17 -41 28 -39 44 2 13
-2 22 -10 22 -8 0 -19 8 -26 17 -7 9 -20 16 -30 15 -13 -1 -22 8 -30 31 l-11
33 -23 -24z"/>
<path d="M4231 4504 c-11 -15 -21 -32 -21 -39 0 -28 -118 -23 -135 5 -15 25
-26 8 -20 -30 6 -33 4 -40 -10 -40 -9 0 -25 -5 -36 -11 -19 -10 -20 -11 -3
-23 16 -12 16 -16 -6 -59 -33 -66 -25 -161 20 -249 51 -97 108 -177 143 -199
40 -24 114 -25 161 -2 78 37 146 182 153 328 5 110 -10 148 -75 183 -33 19
-41 28 -37 43 4 10 2 19 -4 19 -5 0 -17 8 -27 18 -10 9 -27 17 -38 17 -15 0
-22 7 -24 25 -6 39 -18 44 -41 14z"/>
<path d="M5289 4512 c-9 -9 -19 -27 -23 -39 -12 -37 -80 -40 -134 -5 -29 19
-37 10 -24 -28 11 -29 9 -31 -24 -45 -31 -13 -33 -16 -23 -34 10 -16 9 -24 -6
-48 -14 -21 -19 -47 -20 -103 0 -66 4 -84 34 -145 41 -82 96 -161 141 -198 59
-50 179 -28 229 42 66 92 105 240 91 342 -8 56 -13 68 -46 97 -21 17 -43 32
-50 32 -17 0 -25 25 -11 39 6 6 8 12 4 12 -4 1 -11 3 -17 4 -5 1 -14 3 -20 4
-5 0 -10 8 -10 17 0 12 -6 15 -24 10 -25 -6 -36 7 -36 45 0 23 -10 23 -31 1z"/>
<path d="M6342 4507 c-12 -13 -22 -30 -22 -39 0 -30 -90 -31 -136 -1 -26 17
-35 8 -23 -24 12 -33 13 -31 -26 -47 -32 -14 -34 -17 -23 -35 10 -17 10 -25
-3 -48 -26 -44 -32 -115 -16 -170 30 -98 114 -236 173 -282 33 -26 116 -29
162 -6 117 59 202 339 139 461 -8 16 -34 40 -56 53 -32 17 -41 28 -39 44 2 13
-2 22 -10 22 -8 0 -19 8 -26 17 -7 9 -20 16 -30 15 -13 -1 -22 8 -30 31 l-11
33 -23 -24z"/>
<path d="M7391 4504 c-11 -15 -21 -32 -21 -39 0 -28 -118 -23 -135 5 -15 25
-26 8 -20 -30 6 -33 4 -40 -10 -40 -9 0 -25 -5 -36 -11 -19 -10 -20 -11 -3
-23 16 -12 16 -16 -6 -59 -33 -66 -25 -161 20 -249 51 -97 108 -177 143 -199
40 -24 114 -25 161 -2 78 37 146 182 153 328 5 110 -10 148 -75 183 -33 19
-41 28 -37 43 4 10 2 19 -4 19 -5 0 -17 8 -27 18 -10 9 -27 17 -38 17 -15 0
-22 7 -24 25 -6 39 -18 44 -41 14z"/>
<path d="M8449 4512 c-9 -9 -19 -27 -23 -39 -12 -37 -80 -40 -134 -5 -29 19
-37 10 -24 -28 11 -29 9 -31 -24 -45 -31 -13 -33 -16 -23 -34 10 -16 9 -24 -6
-48 -14 -21 -19 -47 -20 -103 0 -66 4 -84 34 -145 41 -82 96 -161 141 -198 59
-50 179 -28 229 42 66 92 105 240 91 342 -8 56 -13 68 -46 97 -21 17 -43 32
-50 32 -17 0 -25 25 -11 39 6 6 8 12 4 12 -4 1 -11 3 -17 4 -5 1 -14 3 -20 4
-5 0 -10 8 -10 17 0 12 -6 15 -24 10 -25 -6 -36 7 -36 45 0 23 -10 23 -31 1z"/>
<path d="M9502 4507 c-12 -13 -22 -30 -22 -39 0 -30 -90 -31 -136 -1 -26 17
-35 8 -23 -24 12 -33 13 -31 -26 -47 -32 -14 -34 -17 -23 -35 10 -17 10 -25
-3 -48 -26 -44 -32 -115 -16 -170 30 -98 114 -236 173 -282 33 -26 116 -29
162 -6 117 59 202 339 139 461 -8 16 -34 40 -56 53 -32 17 -41 28 -39 44 2 13
-2 22 -10 22 -8 0 -19 8 -26 17 -7 9 -20 16 -30 15 -13 -1 -22 8 -30 31 l-11
33 -23 -24z"/>
<path d="M10551 4504 c-11 -15 -21 -32 -21 -39 0 -28 -118 -23 -135 5 -15 25
-26 8 -20 -30 6 -33 4 -40 -10 -40 -9 0 -25 -5 -36 -11 -19 -10 -20 -11 -3
-23 16 -12 16 -16 -6 -59 -33 -66 -25 -161 20 -249 51 -97 108 -177 143 -199
40 -24 114 -25 161 -2 78 37 146 182 153 328 5 110 -10 148 -75 183 -33 19
-41 28 -37 43 4 10 2 19 -4 19 -5 0 -17 8 -27 18 -10 9 -27 17 -38 17 -15 0
-22 7 -24 25 -6 39 -18 44 -41 14z"/>
<path d="M11609 4512 c-9 -9 -19 -27 -23 -39 -12 -37 -80 -40 -134 -5 -29 19
-37 10 -24 -28 11 -29 9 -31 -24 -45 -31 -13 -33 -16 -23 -34 10 -16 9 -24 -6
-48 -14 -21 -19 -47 -20 -103 0 -66 4 -84 34 -145 41 -82 96 -161 141 -198 59
-50 179 -28 229 42 66 92 105 240 91 342 -8 56 -13 68 -46 97 -21 17 -43 32
-50 32 -17 0 -25 25 -11 39 6 6 8 12 4 12 -4 1 -11 3 -17 4 -5 1 -14 3 -20 4
-5 0 -10 8 -10 17 0 12 -6 15 -24 10 -25 -6 -36 7 -36 45 0 23 -10 23 -31 1z"/>
<path d="M12662 4507 c-12 -13 -22 -30 -22 -39 0 -30 -90 -31 -136 -1 -26 17
-35 8 -23 -24 12 -33 13 -31 -26 -47 -32 -14 -34 -17 -23 -35 10 -17 10 -25
-3 -48 -26 -44 -32 -115 -16 -170 30 -98 114 -236 173 -282 36 -28 115 -28
172 -1 l43 21 -1 280 c-1 235 -4 280 -16 275 -7 -3 -19 3 -27 14 -7 10 -21 18
-31 17 -13 -1 -22 8 -30 31 l-11 33 -23 -24z"/>
<path d="M548 4033 c-9 -10 -19 -29 -23 -42 -7 -22 -11 -23 -58 -18 -28 4 -55
11 -61 17 -13 13 -46 13 -46 -1 0 -6 5 -19 10 -29 9 -17 5 -22 -25 -34 -31
-13 -34 -18 -24 -34 9 -14 8 -25 -4 -49 -50 -95 -24 -209 83 -368 42 -63 81
-95 128 -106 91 -21 167 37 222 168 27 64 34 95 38 174 5 114 -8 148 -68 179
-47 24 -56 36 -40 55 10 12 9 15 -10 15 -13 0 -24 8 -27 20 -4 15 -11 18 -29
14 -21 -5 -25 -2 -30 25 -7 35 -15 38 -36 14z"/>
<path d="M1602 4037 c-6 -7 -16 -25 -21 -41 -10 -25 -15 -27 -54 -25 -23 1
-56 11 -74 21 -35 21 -51 11 -33 -21 14 -28 14 -29 -25 -45 -32 -14 -34 -17
-23 -36 11 -16 10 -25 -6 -54 -29 -53 -20 -162 21 -248 35 -74 99 -165 137
-196 69 -53 178 -27 233 56 64 98 97 221 86 323 -7 69 -32 108 -84 129 -25 11
-30 18 -26 37 3 18 0 23 -15 23 -12 0 -22 9 -25 20 -4 15 -11 19 -24 15 -15
-5 -22 0 -30 24 -12 34 -21 38 -37 18z"/>
<path d="M2651 4024 c-11 -15 -21 -33 -21 -41 0 -21 -97 -12 -134 13 l-28 18
6 -40 c7 -39 6 -40 -29 -53 -34 -12 -35 -14 -18 -26 17 -13 17 -15 0 -45 -24
-45 -32 -130 -17 -187 18 -66 96 -199 147 -249 43 -42 99 -61 140 -48 80 27
104 51 149 149 82 178 70 337 -27 380 -34 16 -39 22 -34 42 4 16 1 23 -9 23
-9 0 -20 9 -26 20 -6 12 -19 19 -32 17 -15 -1 -23 4 -26 18 -7 35 -19 37 -41
9z"/>
<path d="M3708 4033 c-9 -10 -19 -29 -23 -42 -7 -22 -11 -23 -58 -18 -28 4
-55 11 -61 17 -13 13 -46 13 -46 -1 0 -6 5 -19 10 -29 9 -17 5 -22 -25 -34
-31 -13 -34 -18 -24 -34 9 -14 8 -25 -4 -49 -50 -95 -24 -209 83 -368 42 -63
81 -95 128 -106 91 -21 167 37 222 168 27 64 34 95 38 174 5 114 -8 148 -68
179 -47 24 -56 36 -40 55 10 12 9 15 -10 15 -13 0 -24 8 -27 20 -4 15 -11 18
-29 14 -21 -5 -25 -2 -30 25 -7 35 -15 38 -36 14z"/>
<path d="M4762 4037 c-6 -7 -16 -25 -21 -41 -10 -25 -15 -27 -54 -25 -23 1
-56 11 -74 21 -35 21 -51 11 -33 -21 14 -28 14 -29 -25 -45 -32 -14 -34 -17
-23 -36 11 -16 10 -25 -6 -54 -29 -53 -20 -162 21 -248 35 -74 99 -165 137
-196 69 -53 178 -27 233 56 64 98 97 221 86 323 -7 69 -32 108 -84 129 -25 11
-30 18 -26 37 3 18 0 23 -15 23 -12 0 -22 9 -25 20 -4 15 -11 19 -24 15 -15
-5 -22 0 -30 24 -12 34 -21 38 -37 18z"/>
<path d="M5811 4024 c-11 -15 -21 -33 -21 -41 0 -21 -97 -12 -134 13 l-28 18
6 -40 c7 -39 6 -40 -29 -53 -34 -12 -35 -14 -18 -26 17 -13 17 -15 0 -45 -24
-45 -32 -130 -17 -187 18 -66 96 -199 147 -249 43 -42 99 -61 140 -48 80 27
104 51 149 149 82 178 70 337 -27 380 -34 16 -39 22 -34 42 4 16 1 23 -9 23
-9 0 -20 9 -26 20 -6 12 -19 19 -32 17 -15 -1 -23 4 -26 18 -7 35 -19 37 -41
9z"/>
<path d="M6868 4033 c-9 -10 -19 -29 -23 -42 -7 -22 -11 -23 -58 -18 -28 4
-55 11 -61 17 -13 13 -46 13 -46 -1 0 -6 5 -19 10 -29 9 -17 5 -22 -25 -34
-31 -13 -34 -18 -24 -34 9 -14 8 -25 -4 -49 -50 -95 -24 -209 83 -368 42 -63
81 -95 128 -106 91 -21 167 37 222 168 27 64 34 95 38 174 5 114 -8 148 -68
179 -47 24 -56 36 -40 55 10 12 9 15 -10 15 -13 0 -24 8 -27 20 -4 15 -11 18
-29 14 -21 -5 -25 -2 -30 25 -7 35 -15 38 -36 14z"/>
<path d="M7922 4037 c-6 -7 -16 -25 -21 -41 -10 -25 -15 -27 -54 -25 -23 1
-56 11 -74 21 -35 21 -51 11 -33 -21 14 -28 14 -29 -25 -45 -32 -14 -34 -17
-23 -36 11 -16 10 -25 -6 -54 -29 -53 -20 -162 21 -248 35 -74 99 -165 137
-196 69 -53 178 -27 233 56 64 98 97 221 86 323 -7 69 -32 108 -84 129 -25 11
-30 18 -26 37 3 18 0 23 -15 23 -12 0 -22 9 -25 20 -4 15 -11 19 -24 15 -15
-5 -22 0 -30 24 -12 34 -21 38 -37 18z"/>
<path d="M8971 4024 c-11 -15 -21 -33 -21 -41 0 -21 -97 -12 -134 13 l-28 18
6 -40 c7 -39 6 -40 -29 -53 -34 -12 -35 -14 -18 -26 17 -13 17 -15 0 -45 -24
-45 -32 -130 -17 -187 18 -66 96 -199 147 -249 43 -42 99 -61 140 -48 80 27
104 51 149 149 82 178 70 337 -27 380 -34 16 -39 22 -34 42 4 16 1 23 -9 23
-9 0 -20 9 -26 20 -6 12 -19 19 -32 17 -15 -1 -23 4 -26 18 -7 35 -19 37 -41
9z"/>
<path d="M10028 4033 c-9 -10 -19 -29 -23 -42 -7 -22 -11 -23 -58 -18 -28 4
-55 11 -61 17 -13 13 -46 13 -46 -1 0 -6 5 -19 10 -29 9 -17 5 -22 -25 -34
-31 -13 -34 -18 -24 -34 9 -14 8 -25 -4 -49 -50 -95 -24 -209 83 -368 42 -63
81 -95 128 -106 91 -21 167 37 222 168 27 64 34 95 38 174 5 114 -8 148 -68
179 -47 24 -56 36 -40 55 10 12 9 15 -10 15 -13 0 -24 8 -27 20 -4 15 -11 18
-29 14 -21 -5 -25 -2 -30 25 -7 35 -15 38 -36 14z"/>
<path d="M11082 4037 c-6 -7 -16 -25 -21 -41 -10 -25 -15 -27 -54 -25 -23 1
-56 11 -74 21 -35 21 -51 11 -33 -21 14 -28 14 -29 -25 -45 -32 -14 -34 -17
-23 -36 11 -16 10 -25 -6 -54 -29 -53 -20 -162 21 -248 35 -74 99 -165 137
-196 69 -53 178 -27 233 56 64 98 97 221 86 323 -7 69 -32 108 -84 129 -25 11
-30 18 -26 37 3 18 0 23 -15 23 -12 0 -22 9 -25 20 -4 15 -11 19 -24 15 -15
-5 -22 0 -30 24 -12 34 -21 38 -37 18z"/>
<path d="M12131 4024 c-11 -15 -21 -33 -21 -41 0 -21 -97 -12 -134 13 l-28 18
6 -40 c7 -39 6 -40 -29 -53 -34 -12 -35 -14 -18 -26 17 -13 17 -15 0 -45 -24
-45 -32 -130 -17 -187 18 -66 96 -199 147 -249 43 -42 99 -61 140 -48 80 27
104 51 149 149 82 178 70 337 -27 380 -34 16 -39 22 -34 42 4 16 1 23 -9 23
-9 0 -20 9 -26 20 -6 12 -19 19 -32 17 -15 -1 -23 4 -26 18 -7 35 -19 37 -41
9z"/>
<path d="M30 3570 c0 -5 -7 -10 -15 -10 -13 0 -15 -42 -13 -337 3 -385 -3
-363 92 -320 100 46 169 189 170 352 1 105 -10 131 -74 167 -33 19 -40 27 -35
46 4 17 1 22 -16 22 -12 0 -23 8 -26 18 -3 14 -11 18 -28 14 -19 -3 -24 1 -30
27 -6 28 -25 44 -25 21z"/>
<path d="M1071 3554 c-11 -15 -21 -33 -21 -40 0 -23 -91 -22 -124 2 -32 22
-39 17 -32 -21 7 -33 5 -36 -23 -46 -33 -12 -37 -19 -20 -36 8 -8 5 -22 -11
-51 -47 -83 -11 -231 88 -364 52 -69 79 -93 124 -108 34 -10 44 -9 94 14 64
30 73 38 114 117 43 83 62 171 58 261 -3 68 -6 80 -32 107 -15 16 -41 35 -57
41 -31 13 -36 29 -17 48 9 9 6 12 -14 12 -17 0 -29 7 -32 18 -4 11 -15 18 -28
18 -15 -1 -24 6 -26 19 -7 35 -19 37 -41 9z"/>
<path d="M2128 3563 c-9 -10 -19 -28 -22 -40 -5 -14 -16 -24 -29 -25 -45 -3
-82 4 -98 18 -22 20 -42 18 -36 -3 2 -10 6 -24 8 -32 3 -12 -22 -32 -55 -44
-5 -2 -3 -12 4 -24 12 -18 11 -25 -3 -46 -9 -14 -20 -51 -23 -81 -8 -68 9
-125 68 -227 54 -94 112 -154 164 -169 36 -11 46 -10 92 10 29 13 62 37 77 56
65 85 110 246 96 344 -6 50 -34 110 -50 110 -3 0 -21 9 -39 20 -28 17 -31 23
-22 40 9 18 8 20 -15 20 -17 0 -25 5 -25 18 0 13 -8 18 -27 17 -23 0 -29 5
-31 28 -4 31 -13 34 -34 10z"/>
<path d="M3178 3558 c-10 -12 -18 -28 -18 -35 0 -34 -79 -37 -127 -6 -28 19
-47 9 -33 -17 16 -30 12 -38 -25 -50 -32 -11 -48 -30 -25 -30 15 0 12 -46 -4
-59 -25 -21 -29 -120 -7 -182 22 -65 30 -80 90 -172 50 -78 73 -98 129 -116
37 -12 44 -12 95 12 44 20 63 37 91 79 55 84 80 168 80 273 1 105 -10 131 -74
167 -33 19 -40 27 -35 46 4 17 1 22 -16 22 -12 0 -23 8 -26 18 -3 14 -11 18
-28 14 -19 -3 -24 1 -30 27 -8 37 -14 38 -37 9z"/>
<path d="M4231 3554 c-11 -15 -21 -33 -21 -40 0 -23 -91 -22 -124 2 -32 22
-39 17 -32 -21 7 -33 5 -36 -23 -46 -33 -12 -37 -19 -20 -36 8 -8 5 -22 -11
-51 -47 -83 -11 -231 88 -364 52 -69 79 -93 124 -108 34 -10 44 -9 94 14 64
30 73 38 114 117 43 83 62 171 58 261 -3 68 -6 80 -32 107 -15 16 -41 35 -57
41 -31 13 -36 29 -17 48 9 9 6 12 -14 12 -17 0 -29 7 -32 18 -4 11 -15 18 -28
18 -15 -1 -24 6 -26 19 -7 35 -19 37 -41 9z"/>
<path d="M5288 3563 c-9 -10 -19 -28 -22 -40 -5 -14 -16 -24 -29 -25 -45 -3
-82 4 -98 18 -22 20 -42 18 -36 -3 2 -10 6 -24 8 -32 3 -12 -22 -32 -55 -44
-5 -2 -3 -12 4 -24 12 -18 11 -25 -3 -46 -9 -14 -20 -51 -23 -81 -8 -68 9
-125 68 -227 54 -94 112 -154 164 -169 36 -11 46 -10 92 10 29 13 62 37 77 56
65 85 110 246 96 344 -6 50 -34 110 -50 110 -3 0 -21 9 -39 20 -28 17 -31 23
-22 40 9 18 8 20 -15 20 -17 0 -25 5 -25 18 0 13 -8 18 -27 17 -23 0 -29 5
-31 28 -4 31 -13 34 -34 10z"/>
<path d="M6338 3558 c-10 -12 -18 -28 -18 -35 0 -34 -79 -37 -127 -6 -28 19
-47 9 -33 -17 16 -30 12 -38 -25 -50 -32 -11 -48 -30 -25 -30 15 0 12 -46 -4
-59 -25 -21 -29 -120 -7 -182 22 -65 30 -80 90 -172 50 -78 73 -98 129 -116
37 -12 44 -12 95 12 44 20 63 37 91 79 55 84 80 168 80 273 1 105 -10 131 -74
167 -33 19 -40 27 -35 46 4 17 1 22 -16 22 -12 0 -23 8 -26 18 -3 14 -11 18
-28 14 -19 -3 -24 1 -30 27 -8 37 -14 38 -37 9z"/>
<path d="M7391 3554 c-11 -15 -21 -33 -21 -40 0 -23 -91 -22 -124 2 -32 22
-39 17 -32 -21 7 -33 5 -36 -23 -46 -33 -12 -37 -19 -20 -36 8 -8 5 -22 -11
-51 -47 -83 -11 -231 88 -364 52 -69 79 -93 124 -108 34 -10 44 -9 94 14 64
30 73 38 114 117 43 83 62 171 58 261 -3 68 -6 80 -32 107 -15 16 -41 35 -57
41 -31 13 -36 29 -17 48 9 9 6 12 -14 12 -17 0 -29 7 -32 18 -4 11 -15 18 -28
18 -15 -1 -24 6 -26 19 -7 35 -19 37 -41 9z"/>
<path d="M8448 3563 c-9 -10 -19 -28 -22 -40 -5 -14 -16 -24 -29 -25 -45 -3
-82 4 -98 18 -22 20 -42 18 -36 -3 2 -10 6 -24 8 -32 3 -12 -22 -32 -55 -44
-5 -2 -3 -12 4 -24 12 -18 11 -25 -3 -46 -9 -14 -20 -51 -23 -81 -8 -68 9
-125 68 -227 54 -94 112 -154 164 -169 36 -11 46 -10 92 10 29 13 62 37 77 56
65 85 110 246 96 344 -6 50 -34 110 -50 110 -3 0 -21 9 -39 20 -28 17 -31 23
-22 40 9 18 8 20 -15 20 -17 0 -25 5 -25 18 0 13 -8 18 -27 17 -23 0 -29 5
-31 28 -4 31 -13 34 -34 10z"/>
<path d="M9498 3558 c-10 -12 -18 -28 -18 -35 0 -34 -79 -37 -127 -6 -28 19
-47 9 -33 -17 16 -30 12 -38 -25 -50 -32 -11 -48 -30 -25 -30 15 0 12 -46 -4
-59 -25 -21 -29 -120 -7 -182 22 -65 30 -80 90 -172 50 -78 73 -98 129 -116
37 -12 44 -12 95 12 44 20 63 37 91 79 55 84 80 168 80 273 1 105 -10 131 -74
167 -33 19 -40 27 -35 46 4 17 1 22 -16 22 -12 0 -23 8 -26 18 -3 14 -11 18
-28 14 -19 -3 -24 1 -30 27 -8 37 -14 38 -37 9z"/>
<path d="M10551 3554 c-11 -15 -21 -33 -21 -40 0 -23 -91 -22 -124 2 -32 22
-39 17 -32 -21 7 -33 5 -36 -23 -46 -33 -12 -37 -19 -20 -36 8 -8 5 -22 -11
-51 -47 -83 -11 -231 88 -364 52 -69 79 -93 124 -108 34 -10 44 -9 94 14 64
30 73 38 114 117 43 83 62 171 58 261 -3 68 -6 80 -32 107 -15 16 -41 35 -57
41 -31 13 -36 29 -17 48 9 9 6 12 -14 12 -17 0 -29 7 -32 18 -4 11 -15 18 -28
18 -15 -1 -24 6 -26 19 -7 35 -19 37 -41 9z"/>
<path d="M11608 3563 c-9 -10 -19 -28 -22 -40 -5 -14 -16 -24 -29 -25 -45 -3
-82 4 -98 18 -22 20 -42 18 -36 -3 2 -10 6 -24 8 -32 3 -12 -22 -32 -55 -44
-5 -2 -3 -12 4 -24 12 -18 11 -25 -3 -46 -9 -14 -20 -51 -23 -81 -8 -68 9
-125 68 -227 54 -94 112 -154 164 -169 36 -11 46 -10 92 10 29 13 62 37 77 56
65 85 110 246 96 344 -6 50 -34 110 -50 110 -3 0 -21 9 -39 20 -28 17 -31 23
-22 40 9 18 8 20 -15 20 -17 0 -25 5 -25 18 0 13 -8 18 -27 17 -23 0 -29 5
-31 28 -4 31 -13 34 -34 10z"/>
<path d="M12658 3558 c-10 -12 -18 -28 -18 -35 0 -34 -79 -37 -127 -6 -28 19
-47 9 -33 -17 16 -30 12 -38 -25 -50 -32 -11 -48 -30 -25 -30 15 0 12 -46 -4
-59 -25 -21 -29 -120 -7 -182 22 -65 30 -80 90 -172 50 -78 73 -98 128 -116
38 -12 45 -11 102 14 l62 28 -1 279 c-2 271 -2 278 -22 278 -11 0 -22 8 -25
18 -3 14 -11 18 -28 14 -19 -3 -24 1 -30 27 -8 37 -14 38 -37 9z"/>
<path d="M556 3097 c-32 -64 -42 -72 -89 -70 -26 1 -58 10 -72 19 -32 21 -42
12 -26 -22 13 -29 7 -44 -17 -44 -32 0 -45 -15 -32 -37 10 -15 9 -25 -3 -49
-25 -49 -31 -134 -13 -188 32 -95 124 -239 171 -270 62 -41 162 -27 208 28 61
72 107 211 107 318 0 84 -19 133 -60 156 -61 33 -64 37 -51 60 11 20 9 22 -14
22 -16 0 -25 6 -25 16 0 9 -7 14 -17 12 -25 -4 -43 10 -43 32 0 23 -16 34 -24
17z"/>
<path d="M1603 3088 c-11 -13 -23 -32 -25 -43 -3 -17 -10 -20 -57 -18 -33 2
-61 9 -72 19 -25 22 -41 10 -29 -22 13 -34 15 -32 -27 -50 -21 -9 -32 -18 -25
-21 17 -7 15 -44 -4 -72 -27 -37 -15 -173 20 -242 39 -76 104 -170 137 -197
41 -34 114 -40 165 -14 118 60 203 357 136 474 -8 14 -33 35 -54 45 -34 16
-38 21 -34 46 5 22 2 27 -15 27 -12 0 -23 8 -26 20 -4 16 -9 18 -24 9 -19 -10
-23 -5 -40 49 -3 9 -11 6 -26 -10z"/>
<path d="M2658 3093 c-9 -10 -22 -31 -28 -47 -10 -27 -13 -28 -56 -22 -25 3
-55 13 -67 21 -33 23 -40 18 -33 -20 6 -32 5 -35 -30 -50 -34 -14 -36 -16 -19
-29 17 -12 17 -15 1 -46 -24 -49 -31 -131 -15 -187 23 -85 100 -213 162 -271
38 -35 120 -40 172 -10 86 50 150 201 150 353 0 106 -12 133 -76 166 -35 17
-40 24 -35 45 5 19 3 24 -13 24 -10 0 -22 7 -25 16 -4 10 -13 13 -26 9 -14 -5
-22 -1 -26 12 -18 56 -18 56 -36 36z"/>
<path d="M3716 3097 c-32 -64 -42 -72 -89 -70 -26 1 -58 10 -72 19 -32 21 -42
12 -26 -22 13 -29 7 -44 -17 -44 -32 0 -45 -15 -32 -37 10 -15 9 -25 -3 -49
-25 -49 -31 -134 -13 -188 32 -95 124 -239 171 -270 62 -41 162 -27 208 28 61
72 107 211 107 318 0 84 -19 133 -60 156 -61 33 -64 37 -51 60 11 20 9 22 -14
22 -16 0 -25 6 -25 16 0 9 -7 14 -17 12 -25 -4 -43 10 -43 32 0 23 -16 34 -24
17z"/>
<path d="M4763 3088 c-11 -13 -23 -32 -25 -43 -3 -17 -10 -20 -57 -18 -33 2
-61 9 -72 19 -25 22 -41 10 -29 -22 13 -34 15 -32 -27 -50 -21 -9 -32 -18 -25
-21 17 -7 15 -44 -4 -72 -27 -37 -15 -173 20 -242 39 -76 104 -170 137 -197
41 -34 114 -40 165 -14 118 60 203 357 136 474 -8 14 -33 35 -54 45 -34 16
-38 21 -34 46 5 22 2 27 -15 27 -12 0 -23 8 -26 20 -4 16 -9 18 -24 9 -19 -10
-23 -5 -40 49 -3 9 -11 6 -26 -10z"/>
<path d="M5818 3093 c-9 -10 -22 -31 -28 -47 -10 -27 -13 -28 -56 -22 -25 3
-55 13 -67 21 -33 23 -40 18 -33 -20 6 -32 5 -35 -30 -50 -34 -14 -36 -16 -19
-29 17 -12 17 -15 1 -46 -24 -49 -31 -131 -15 -187 23 -85 100 -213 162 -271
38 -35 120 -40 172 -10 86 50 150 201 150 353 0 106 -12 133 -76 166 -35 17
-40 24 -35 45 5 19 3 24 -13 24 -10 0 -22 7 -25 16 -4 10 -13 13 -26 9 -14 -5
-22 -1 -26 12 -18 56 -18 56 -36 36z"/>
<path d="M6876 3097 c-32 -64 -42 -72 -89 -70 -26 1 -58 10 -72 19 -32 21 -42
12 -26 -22 13 -29 7 -44 -17 -44 -32 0 -45 -15 -32 -37 10 -15 9 -25 -3 -49
-25 -49 -31 -134 -13 -188 32 -95 124 -239 171 -270 62 -41 162 -27 208 28 61
72 107 211 107 318 0 84 -19 133 -60 156 -61 33 -64 37 -51 60 11 20 9 22 -14
22 -16 0 -25 6 -25 16 0 9 -7 14 -17 12 -25 -4 -43 10 -43 32 0 23 -16 34 -24
17z"/>
<path d="M7923 3088 c-11 -13 -23 -32 -25 -43 -3 -17 -10 -20 -57 -18 -33 2
-61 9 -72 19 -25 22 -41 10 -29 -22 13 -34 15 -32 -27 -50 -21 -9 -32 -18 -25
-21 17 -7 15 -44 -4 -72 -27 -37 -15 -173 20 -242 39 -76 104 -170 137 -197
41 -34 114 -40 165 -14 118 60 203 357 136 474 -8 14 -33 35 -54 45 -34 16
-38 21 -34 46 5 22 2 27 -15 27 -12 0 -23 8 -26 20 -4 16 -9 18 -24 9 -19 -10
-23 -5 -40 49 -3 9 -11 6 -26 -10z"/>
<path d="M8978 3093 c-9 -10 -22 -31 -28 -47 -10 -27 -13 -28 -56 -22 -25 3
-55 13 -67 21 -33 23 -40 18 -33 -20 6 -32 5 -35 -30 -50 -34 -14 -36 -16 -19
-29 17 -12 17 -15 1 -46 -24 -49 -31 -131 -15 -187 23 -85 100 -213 162 -271
38 -35 120 -40 172 -10 86 50 150 201 150 353 0 106 -12 133 -76 166 -35 17
-40 24 -35 45 5 19 3 24 -13 24 -10 0 -22 7 -25 16 -4 10 -13 13 -26 9 -14 -5
-22 -1 -26 12 -18 56 -18 56 -36 36z"/>
<path d="M10036 3097 c-32 -64 -42 -72 -89 -70 -26 1 -58 10 -72 19 -32 21
-42 12 -26 -22 13 -29 7 -44 -17 -44 -32 0 -45 -15 -32 -37 10 -15 9 -25 -3
-49 -25 -49 -31 -134 -13 -188 32 -95 124 -239 171 -270 62 -41 162 -27 208
28 61 72 107 211 107 318 0 84 -19 133 -60 156 -61 33 -64 37 -51 60 11 20 9
22 -14 22 -16 0 -25 6 -25 16 0 9 -7 14 -17 12 -25 -4 -43 10 -43 32 0 23 -16
34 -24 17z"/>
<path d="M11083 3088 c-11 -13 -23 -32 -25 -43 -3 -17 -10 -20 -57 -18 -33 2
-61 9 -72 19 -25 22 -41 10 -29 -22 13 -34 15 -32 -27 -50 -21 -9 -32 -18 -25
-21 17 -7 15 -44 -4 -72 -27 -37 -15 -173 20 -242 39 -76 104 -170 137 -197
41 -34 114 -40 165 -14 118 60 203 357 136 474 -8 14 -33 35 -54 45 -34 16
-38 21 -34 46 5 22 2 27 -15 27 -12 0 -23 8 -26 20 -4 16 -9 18 -24 9 -19 -10
-23 -5 -40 49 -3 9 -11 6 -26 -10z"/>
<path d="M12138 3093 c-9 -10 -22 -31 -28 -47 -10 -27 -13 -28 -56 -22 -25 3
-55 13 -67 21 -33 23 -40 18 -33 -20 6 -32 5 -35 -30 -50 -34 -14 -36 -16 -19
-29 17 -12 17 -15 1 -46 -24 -49 -31 -131 -15 -187 23 -85 100 -213 162 -271
38 -35 120 -40 172 -10 86 50 150 201 150 353 0 106 -12 133 -76 166 -35 17
-40 24 -35 45 5 19 3 24 -13 24 -10 0 -22 7 -25 16 -4 10 -13 13 -26 9 -14 -5
-22 -1 -26 12 -18 56 -18 56 -36 36z"/>
<path d="M22 2613 l-22 -15 0 -329 0 -329 38 0 c99 0 174 89 218 260 19 74 15
170 -9 216 -8 16 -34 40 -56 53 -32 17 -41 28 -39 44 2 13 -2 22 -10 22 -8 0
-19 8 -26 17 -7 9 -20 16 -30 15 -13 -1 -22 8 -30 29 -10 30 -12 31 -34 17z"/>
<path d="M1071 2604 c-11 -15 -21 -32 -21 -39 0 -28 -118 -23 -135 5 -15 25
-26 8 -20 -30 6 -33 4 -40 -10 -40 -9 0 -25 -5 -36 -11 -19 -10 -20 -11 -3
-23 16 -12 16 -16 -6 -59 -33 -66 -25 -161 20 -249 51 -97 108 -177 143 -199
40 -24 114 -25 161 -2 78 37 146 182 153 328 5 110 -10 148 -75 183 -33 19
-41 28 -37 43 4 10 2 19 -4 19 -5 0 -17 8 -27 18 -10 9 -27 17 -38 17 -15 0
-22 7 -24 25 -6 39 -18 44 -41 14z"/>
<path d="M2129 2612 c-9 -9 -19 -27 -23 -39 -12 -37 -80 -40 -134 -5 -29 19
-37 10 -24 -28 11 -29 9 -31 -24 -45 -31 -13 -33 -16 -23 -34 10 -16 9 -24 -6
-48 -14 -21 -19 -47 -20 -103 0 -66 4 -84 34 -145 41 -82 96 -161 141 -198 59
-50 179 -28 229 42 66 92 105 240 91 342 -8 56 -13 68 -46 97 -21 17 -43 32
-50 32 -17 0 -25 25 -11 39 6 6 8 12 4 12 -4 1 -11 3 -17 4 -5 1 -14 3 -20 4
-5 0 -10 8 -10 17 0 12 -6 15 -24 10 -25 -6 -36 7 -36 45 0 23 -10 23 -31 1z"/>
<path d="M3182 2607 c-12 -13 -22 -30 -22 -39 0 -30 -90 -31 -136 -1 -26 17
-35 8 -23 -24 12 -33 13 -31 -26 -47 -32 -14 -34 -17 -23 -35 10 -17 10 -25
-3 -48 -26 -44 -32 -115 -16 -170 30 -98 114 -236 173 -282 33 -26 116 -29
162 -6 117 59 202 339 139 461 -8 16 -34 40 -56 53 -32 17 -41 28 -39 44 2 13
-2 22 -10 22 -8 0 -19 8 -26 17 -7 9 -20 16 -30 15 -13 -1 -22 8 -30 31 l-11
33 -23 -24z"/>
<path d="M4231 2604 c-11 -15 -21 -32 -21 -39 0 -28 -118 -23 -135 5 -15 25
-26 8 -20 -30 6 -33 4 -40 -10 -40 -9 0 -25 -5 -36 -11 -19 -10 -20 -11 -3
-23 16 -12 16 -16 -6 -59 -33 -66 -25 -161 20 -249 51 -97 108 -177 143 -199
40 -24 114 -25 161 -2 78 37 146 182 153 328 5 110 -10 148 -75 183 -33 19
-41 28 -37 43 4 10 2 19 -4 19 -5 0 -17 8 -27 18 -10 9 -27 17 -38 17 -15 0
-22 7 -24 25 -6 39 -18 44 -41 14z"/>
<path d="M5289 2612 c-9 -9 -19 -27 -23 -39 -12 -37 -80 -40 -134 -5 -29 19
-37 10 -24 -28 11 -29 9 -31 -24 -45 -31 -13 -33 -16 -23 -34 10 -16 9 -24 -6
-48 -14 -21 -19 -47 -20 -103 0 -66 4 -84 34 -145 41 -82 96 -161 141 -198 59
-50 179 -28 229 42 66 92 105 240 91 342 -8 56 -13 68 -46 97 -21 17 -43 32
-50 32 -17 0 -25 25 -11 39 6 6 8 12 4 12 -4 1 -11 3 -17 4 -5 1 -14 3 -20 4
-5 0 -10 8 -10 17 0 12 -6 15 -24 10 -25 -6 -36 7 -36 45 0 23 -10 23 -31 1z"/>
<path d="M6342 2607 c-12 -13 -22 -30 -22 -39 0 -30 -90 -31 -136 -1 -26 17
-35 8 -23 -24 12 -33 13 -31 -26 -47 -32 -14 -34 -17 -23 -35 10 -17 10 -25
-3 -48 -26 -44 -32 -115 -16 -170 30 -98 114 -236 173 -282 33 -26 116 -29
162 -6 117 59 202 339 139 461 -8 16 -34 40 -56 53 -32 17 -41 28 -39 44 2 13
-2 22 -10 22 -8 0 -19 8 -26 17 -7 9 -20 16 -30 15 -13 -1 -22 8 -30 31 l-11
33 -23 -24z"/>
<path d="M7391 2604 c-11 -15 -21 -32 -21 -39 0 -28 -118 -23 -135 5 -15 25
-26 8 -20 -30 6 -33 4 -40 -10 -40 -9 0 -25 -5 -36 -11 -19 -10 -20 -11 -3
-23 16 -12 16 -16 -6 -59 -33 -66 -25 -161 20 -249 51 -97 108 -177 143 -199
40 -24 114 -25 161 -2 78 37 146 182 153 328 5 110 -10 148 -75 183 -33 19
-41 28 -37 43 4 10 2 19 -4 19 -5 0 -17 8 -27 18 -10 9 -27 17 -38 17 -15 0
-22 7 -24 25 -6 39 -18 44 -41 14z"/>
<path d="M8449 2612 c-9 -9 -19 -27 -23 -39 -12 -37 -80 -40 -134 -5 -29 19
-37 10 -24 -28 11 -29 9 -31 -24 -45 -31 -13 -33 -16 -23 -34 10 -16 9 -24 -6
-48 -14 -21 -19 -47 -20 -103 0 -66 4 -84 34 -145 41 -82 96 -161 141 -198 59
-50 179 -28 229 42 66 92 105 240 91 342 -8 56 -13 68 -46 97 -21 17 -43 32
-50 32 -17 0 -25 25 -11 39 6 6 8 12 4 12 -4 1 -11 3 -17 4 -5 1 -14 3 -20 4
-5 0 -10 8 -10 17 0 12 -6 15 -24 10 -25 -6 -36 7 -36 45 0 23 -10 23 -31 1z"/>
<path d="M9502 2607 c-12 -13 -22 -30 -22 -39 0 -30 -90 -31 -136 -1 -26 17
-35 8 -23 -24 12 -33 13 -31 -26 -47 -32 -14 -34 -17 -23 -35 10 -17 10 -25
-3 -48 -26 -44 -32 -115 -16 -170 30 -98 114 -236 173 -282 33 -26 116 -29
162 -6 117 59 202 339 139 461 -8 16 -34 40 -56 53 -32 17 -41 28 -39 44 2 13
-2 22 -10 22 -8 0 -19 8 -26 17 -7 9 -20 16 -30 15 -13 -1 -22 8 -30 31 l-11
33 -23 -24z"/>
<path d="M10551 2604 c-11 -15 -21 -32 -21 -39 0 -28 -118 -23 -135 5 -15 25
-26 8 -20 -30 6 -33 4 -40 -10 -40 -9 0 -25 -5 -36 -11 -19 -10 -20 -11 -3
-23 16 -12 16 -16 -6 -59 -33 -66 -25 -161 20 -249 51 -97 108 -177 143 -199
40 -24 114 -25 161 -2 78 37 146 182 153 328 5 110 -10 148 -75 183 -33 19
-41 28 -37 43 4 10 2 19 -4 19 -5 0 -17 8 -27 18 -10 9 -27 17 -38 17 -15 0
-22 7 -24 25 -6 39 -18 44 -41 14z"/>
<path d="M11609 2612 c-9 -9 -19 -27 -23 -39 -12 -37 -80 -40 -134 -5 -29 19
-37 10 -24 -28 11 -29 9 -31 -24 -45 -31 -13 -33 -16 -23 -34 10 -16 9 -24 -6
-48 -14 -21 -19 -47 -20 -103 0 -66 4 -84 34 -145 41 -82 96 -161 141 -198 59
-50 179 -28 229 42 66 92 105 240 91 342 -8 56 -13 68 -46 97 -21 17 -43 32
-50 32 -17 0 -25 25 -11 39 6 6 8 12 4 12 -4 1 -11 3 -17 4 -5 1 -14 3 -20 4
-5 0 -10 8 -10 17 0 12 -6 15 -24 10 -25 -6 -36 7 -36 45 0 23 -10 23 -31 1z"/>
<path d="M12662 2607 c-12 -13 -22 -30 -22 -39 0 -30 -90 -31 -136 -1 -26 17
-35 8 -23 -24 12 -33 13 -31 -26 -47 -32 -14 -34 -17 -23 -35 10 -17 10 -25
-3 -48 -26 -44 -32 -115 -16 -170 30 -98 114 -236 173 -282 36 -28 115 -28
172 -1 l43 21 -1 280 c-1 235 -4 280 -16 275 -7 -3 -19 3 -27 14 -7 10 -21 18
-31 17 -13 -1 -22 8 -30 31 l-11 33 -23 -24z"/>
<path d="M548 2133 c-9 -10 -19 -29 -23 -42 -7 -22 -11 -23 -58 -18 -28 4 -55
11 -61 17 -13 13 -46 13 -46 -1 0 -6 5 -19 10 -29 9 -17 5 -22 -25 -34 -31
-13 -34 -18 -24 -34 9 -14 8 -25 -4 -49 -50 -95 -24 -209 83 -368 42 -63 81
-95 128 -106 91 -21 167 37 222 168 27 64 34 95 38 174 5 114 -8 148 -68 179
-47 24 -56 36 -40 55 10 12 9 15 -10 15 -13 0 -24 8 -27 20 -4 15 -11 18 -29
14 -21 -5 -25 -2 -30 25 -7 35 -15 38 -36 14z"/>
<path d="M1602 2137 c-6 -7 -16 -25 -21 -41 -10 -25 -15 -27 -54 -25 -23 1
-56 11 -74 21 -35 21 -51 11 -33 -21 14 -28 14 -29 -25 -45 -32 -14 -34 -17
-23 -36 11 -16 10 -25 -6 -54 -29 -53 -20 -162 21 -248 35 -74 99 -165 137
-196 69 -53 178 -27 233 56 64 98 97 221 86 323 -7 69 -32 108 -84 129 -25 11
-30 18 -26 37 3 18 0 23 -15 23 -12 0 -22 9 -25 20 -4 15 -11 19 -24 15 -15
-5 -22 0 -30 24 -12 34 -21 38 -37 18z"/>
<path d="M2651 2124 c-11 -15 -21 -33 -21 -41 0 -21 -97 -12 -134 13 l-28 18
6 -40 c7 -39 6 -40 -29 -53 -34 -12 -35 -14 -18 -26 17 -13 17 -15 0 -45 -24
-45 -32 -130 -17 -187 18 -66 96 -199 147 -249 43 -42 99 -61 140 -48 80 27
104 51 149 149 82 178 70 337 -27 380 -34 16 -39 22 -34 42 4 16 1 23 -9 23
-9 0 -20 9 -26 20 -6 12 -19 19 -32 17 -15 -1 -23 4 -26 18 -7 35 -19 37 -41
9z"/>
<path d="M3708 2133 c-9 -10 -19 -29 -23 -42 -7 -22 -11 -23 -58 -18 -28 4
-55 11 -61 17 -13 13 -46 13 -46 -1 0 -6 5 -19 10 -29 9 -17 5 -22 -25 -34
-31 -13 -34 -18 -24 -34 9 -14 8 -25 -4 -49 -50 -95 -24 -209 83 -368 42 -63
81 -95 128 -106 91 -21 167 37 222 168 27 64 34 95 38 174 5 114 -8 148 -68
179 -47 24 -56 36 -40 55 10 12 9 15 -10 15 -13 0 -24 8 -27 20 -4 15 -11 18
-29 14 -21 -5 -25 -2 -30 25 -7 35 -15 38 -36 14z"/>
<path d="M4762 2137 c-6 -7 -16 -25 -21 -41 -10 -25 -15 -27 -54 -25 -23 1
-56 11 -74 21 -35 21 -51 11 -33 -21 14 -28 14 -29 -25 -45 -32 -14 -34 -17
-23 -36 11 -16 10 -25 -6 -54 -29 -53 -20 -162 21 -248 35 -74 99 -165 137
-196 69 -53 178 -27 233 56 64 98 97 221 86 323 -7 69 -32 108 -84 129 -25 11
-30 18 -26 37 3 18 0 23 -15 23 -12 0 -22 9 -25 20 -4 15 -11 19 -24 15 -15
-5 -22 0 -30 24 -12 34 -21 38 -37 18z"/>
<path d="M5811 2124 c-11 -15 -21 -33 -21 -41 0 -21 -97 -12 -134 13 l-28 18
6 -40 c7 -39 6 -40 -29 -53 -34 -12 -35 -14 -18 -26 17 -13 17 -15 0 -45 -24
-45 -32 -130 -17 -187 18 -66 96 -199 147 -249 43 -42 99 -61 140 -48 80 27
104 51 149 149 82 178 70 337 -27 380 -34 16 -39 22 -34 42 4 16 1 23 -9 23
-9 0 -20 9 -26 20 -6 12 -19 19 -32 17 -15 -1 -23 4 -26 18 -7 35 -19 37 -41
9z"/>
<path d="M6868 2133 c-9 -10 -19 -29 -23 -42 -7 -22 -11 -23 -58 -18 -28 4
-55 11 -61 17 -13 13 -46 13 -46 -1 0 -6 5 -19 10 -29 9 -17 5 -22 -25 -34
-31 -13 -34 -18 -24 -34 9 -14 8 -25 -4 -49 -50 -95 -24 -209 83 -368 42 -63
81 -95 128 -106 91 -21 167 37 222 168 27 64 34 95 38 174 5 114 -8 148 -68
179 -47 24 -56 36 -40 55 10 12 9 15 -10 15 -13 0 -24 8 -27 20 -4 15 -11 18
-29 14 -21 -5 -25 -2 -30 25 -7 35 -15 38 -36 14z"/>
<path d="M7922 2137 c-6 -7 -16 -25 -21 -41 -10 -25 -15 -27 -54 -25 -23 1
-56 11 -74 21 -35 21 -51 11 -33 -21 14 -28 14 -29 -25 -45 -32 -14 -34 -17
-23 -36 11 -16 10 -25 -6 -54 -29 -53 -20 -162 21 -248 35 -74 99 -165 137
-196 69 -53 178 -27 233 56 64 98 97 221 86 323 -7 69 -32 108 -84 129 -25 11
-30 18 -26 37 3 18 0 23 -15 23 -12 0 -22 9 -25 20 -4 15 -11 19 -24 15 -15
-5 -22 0 -30 24 -12 34 -21 38 -37 18z"/>
<path d="M8971 2124 c-11 -15 -21 -33 -21 -41 0 -21 -97 -12 -134 13 l-28 18
6 -40 c7 -39 6 -40 -29 -53 -34 -12 -35 -14 -18 -26 17 -13 17 -15 0 -45 -24
-45 -32 -130 -17 -187 18 -66 96 -199 147 -249 43 -42 99 -61 140 -48 80 27
104 51 149 149 82 178 70 337 -27 380 -34 16 -39 22 -34 42 4 16 1 23 -9 23
-9 0 -20 9 -26 20 -6 12 -19 19 -32 17 -15 -1 -23 4 -26 18 -7 35 -19 37 -41
9z"/>
<path d="M10028 2133 c-9 -10 -19 -29 -23 -42 -7 -22 -11 -23 -58 -18 -28 4
-55 11 -61 17 -13 13 -46 13 -46 -1 0 -6 5 -19 10 -29 9 -17 5 -22 -25 -34
-31 -13 -34 -18 -24 -34 9 -14 8 -25 -4 -49 -50 -95 -24 -209 83 -368 42 -63
81 -95 128 -106 91 -21 167 37 222 168 27 64 34 95 38 174 5 114 -8 148 -68
179 -47 24 -56 36 -40 55 10 12 9 15 -10 15 -13 0 -24 8 -27 20 -4 15 -11 18
-29 14 -21 -5 -25 -2 -30 25 -7 35 -15 38 -36 14z"/>
<path d="M11082 2137 c-6 -7 -16 -25 -21 -41 -10 -25 -15 -27 -54 -25 -23 1
-56 11 -74 21 -35 21 -51 11 -33 -21 14 -28 14 -29 -25 -45 -32 -14 -34 -17
-23 -36 11 -16 10 -25 -6 -54 -29 -53 -20 -162 21 -248 35 -74 99 -165 137
-196 69 -53 178 -27 233 56 64 98 97 221 86 323 -7 69 -32 108 -84 129 -25 11
-30 18 -26 37 3 18 0 23 -15 23 -12 0 -22 9 -25 20 -4 15 -11 19 -24 15 -15
-5 -22 0 -30 24 -12 34 -21 38 -37 18z"/>
<path d="M12131 2124 c-11 -15 -21 -33 -21 -41 0 -21 -97 -12 -134 13 l-28 18
6 -40 c7 -39 6 -40 -29 -53 -34 -12 -35 -14 -18 -26 17 -13 17 -15 0 -45 -24
-45 -32 -130 -17 -187 18 -66 96 -199 147 -249 43 -42 99 -61 140 -48 80 27
104 51 149 149 82 178 70 337 -27 380 -34 16 -39 22 -34 42 4 16 1 23 -9 23
-9 0 -20 9 -26 20 -6 12 -19 19 -32 17 -15 -1 -23 4 -26 18 -7 35 -19 37 -41
9z"/>
<path d="M30 1670 c0 -5 -7 -10 -15 -10 -13 0 -15 -42 -13 -337 l3 -338 22 -3
c12 -2 44 6 70 18 95 40 168 198 168 360 0 100 -13 127 -75 162 -33 19 -40 27
-35 46 4 17 1 22 -16 22 -12 0 -23 8 -26 18 -3 14 -11 18 -28 14 -19 -3 -24 1
-30 27 -6 28 -25 44 -25 21z"/>
<path d="M1071 1654 c-11 -15 -21 -33 -21 -40 0 -23 -91 -22 -124 2 -32 22
-39 17 -32 -21 7 -33 5 -36 -23 -46 -33 -12 -37 -19 -20 -36 8 -8 5 -22 -11
-51 -19 -33 -22 -51 -18 -110 3 -57 11 -85 45 -153 51 -102 109 -179 148 -199
76 -37 167 -7 220 73 57 87 79 167 80 284 0 99 -1 103 -29 132 -15 16 -41 35
-57 41 -31 13 -36 29 -17 48 9 9 6 12 -14 12 -17 0 -29 7 -32 18 -4 11 -15 18
-28 18 -15 -1 -24 6 -26 19 -7 35 -19 37 -41 9z"/>
<path d="M2128 1663 c-9 -10 -19 -28 -22 -40 -5 -14 -16 -24 -29 -25 -45 -3
-82 4 -98 18 -22 20 -42 18 -36 -3 2 -10 6 -24 8 -32 3 -12 -22 -32 -55 -44
-5 -2 -3 -12 4 -24 12 -18 11 -25 -5 -50 -15 -21 -19 -46 -19 -103 0 -65 4
-84 34 -145 38 -78 92 -158 130 -192 58 -52 145 -51 209 3 72 60 138 262 122
374 -6 50 -34 110 -50 110 -3 0 -21 9 -39 20 -28 17 -31 23 -22 40 9 18 8 20
-15 20 -17 0 -25 5 -25 18 0 13 -8 18 -27 17 -23 0 -29 5 -31 28 -4 31 -13 34
-34 10z"/>
<path d="M3178 1658 c-10 -12 -18 -28 -18 -35 0 -34 -79 -37 -127 -6 -28 19
-47 9 -33 -17 16 -30 12 -38 -25 -50 -32 -11 -48 -30 -25 -30 15 0 12 -46 -4
-59 -25 -21 -29 -120 -7 -181 39 -110 109 -223 166 -268 41 -33 95 -37 152
-12 95 40 168 198 168 360 0 100 -13 127 -75 162 -33 19 -40 27 -35 46 4 17 1
22 -16 22 -12 0 -23 8 -26 18 -3 14 -11 18 -28 14 -19 -3 -24 1 -30 27 -8 37
-14 38 -37 9z"/>
<path d="M4231 1654 c-11 -15 -21 -33 -21 -40 0 -23 -91 -22 -124 2 -32 22
-39 17 -32 -21 7 -33 5 -36 -23 -46 -33 -12 -37 -19 -20 -36 8 -8 5 -22 -11
-51 -19 -33 -22 -51 -18 -110 3 -57 11 -85 45 -153 51 -102 109 -179 148 -199
76 -37 167 -7 220 73 57 87 79 167 80 284 0 99 -1 103 -29 132 -15 16 -41 35
-57 41 -31 13 -36 29 -17 48 9 9 6 12 -14 12 -17 0 -29 7 -32 18 -4 11 -15 18
-28 18 -15 -1 -24 6 -26 19 -7 35 -19 37 -41 9z"/>
<path d="M5288 1663 c-9 -10 -19 -28 -22 -40 -5 -14 -16 -24 -29 -25 -45 -3
-82 4 -98 18 -22 20 -42 18 -36 -3 2 -10 6 -24 8 -32 3 -12 -22 -32 -55 -44
-5 -2 -3 -12 4 -24 12 -18 11 -25 -5 -50 -15 -21 -19 -46 -19 -103 0 -65 4
-84 34 -145 38 -78 92 -158 130 -192 58 -52 145 -51 209 3 72 60 138 262 122
374 -6 50 -34 110 -50 110 -3 0 -21 9 -39 20 -28 17 -31 23 -22 40 9 18 8 20
-15 20 -17 0 -25 5 -25 18 0 13 -8 18 -27 17 -23 0 -29 5 -31 28 -4 31 -13 34
-34 10z"/>
<path d="M6338 1658 c-10 -12 -18 -28 -18 -35 0 -34 -79 -37 -127 -6 -28 19
-47 9 -33 -17 16 -30 12 -38 -25 -50 -32 -11 -48 -30 -25 -30 15 0 12 -46 -4
-59 -25 -21 -29 -120 -7 -181 39 -110 109 -223 166 -268 41 -33 95 -37 152
-12 95 40 168 198 168 360 0 100 -13 127 -75 162 -33 19 -40 27 -35 46 4 17 1
22 -16 22 -12 0 -23 8 -26 18 -3 14 -11 18 -28 14 -19 -3 -24 1 -30 27 -8 37
-14 38 -37 9z"/>
<path d="M7391 1654 c-11 -15 -21 -33 -21 -40 0 -23 -91 -22 -124 2 -32 22
-39 17 -32 -21 7 -33 5 -36 -23 -46 -33 -12 -37 -19 -20 -36 8 -8 5 -22 -11
-51 -19 -33 -22 -51 -18 -110 3 -57 11 -85 45 -153 51 -102 109 -179 148 -199
76 -37 167 -7 220 73 57 87 79 167 80 284 0 99 -1 103 -29 132 -15 16 -41 35
-57 41 -31 13 -36 29 -17 48 9 9 6 12 -14 12 -17 0 -29 7 -32 18 -4 11 -15 18
-28 18 -15 -1 -24 6 -26 19 -7 35 -19 37 -41 9z"/>
<path d="M8448 1663 c-9 -10 -19 -28 -22 -40 -5 -14 -16 -24 -29 -25 -45 -3
-82 4 -98 18 -22 20 -42 18 -36 -3 2 -10 6 -24 8 -32 3 -12 -22 -32 -55 -44
-5 -2 -3 -12 4 -24 12 -18 11 -25 -5 -50 -15 -21 -19 -46 -19 -103 0 -65 4
-84 34 -145 38 -78 92 -158 130 -192 58 -52 145 -51 209 3 72 60 138 262 122
374 -6 50 -34 110 -50 110 -3 0 -21 9 -39 20 -28 17 -31 23 -22 40 9 18 8 20
-15 20 -17 0 -25 5 -25 18 0 13 -8 18 -27 17 -23 0 -29 5 -31 28 -4 31 -13 34
-34 10z"/>
<path d="M9498 1658 c-10 -12 -18 -28 -18 -35 0 -34 -79 -37 -127 -6 -28 19
-47 9 -33 -17 16 -30 12 -38 -25 -50 -32 -11 -48 -30 -25 -30 15 0 12 -46 -4
-59 -25 -21 -29 -120 -7 -181 39 -110 109 -223 166 -268 41 -33 95 -37 152
-12 95 40 168 198 168 360 0 100 -13 127 -75 162 -33 19 -40 27 -35 46 4 17 1
22 -16 22 -12 0 -23 8 -26 18 -3 14 -11 18 -28 14 -19 -3 -24 1 -30 27 -8 37
-14 38 -37 9z"/>
<path d="M10551 1654 c-11 -15 -21 -33 -21 -40 0 -23 -91 -22 -124 2 -32 22
-39 17 -32 -21 7 -33 5 -36 -23 -46 -33 -12 -37 -19 -20 -36 8 -8 5 -22 -11
-51 -19 -33 -22 -51 -18 -110 3 -57 11 -85 45 -153 51 -102 109 -179 148 -199
76 -37 167 -7 220 73 57 87 79 167 80 284 0 99 -1 103 -29 132 -15 16 -41 35
-57 41 -31 13 -36 29 -17 48 9 9 6 12 -14 12 -17 0 -29 7 -32 18 -4 11 -15 18
-28 18 -15 -1 -24 6 -26 19 -7 35 -19 37 -41 9z"/>
<path d="M11608 1663 c-9 -10 -19 -28 -22 -40 -5 -14 -16 -24 -29 -25 -45 -3
-82 4 -98 18 -22 20 -42 18 -36 -3 2 -10 6 -24 8 -32 3 -12 -22 -32 -55 -44
-5 -2 -3 -12 4 -24 12 -18 11 -25 -5 -50 -15 -21 -19 -46 -19 -103 0 -65 4
-84 34 -145 38 -78 92 -158 130 -192 58 -52 145 -51 209 3 72 60 138 262 122
374 -6 50 -34 110 -50 110 -3 0 -21 9 -39 20 -28 17 -31 23 -22 40 9 18 8 20
-15 20 -17 0 -25 5 -25 18 0 13 -8 18 -27 17 -23 0 -29 5 -31 28 -4 31 -13 34
-34 10z"/>
<path d="M12658 1658 c-10 -12 -18 -28 -18 -35 0 -34 -79 -37 -127 -6 -28 19
-47 9 -33 -17 16 -30 12 -38 -25 -50 -32 -11 -48 -30 -25 -30 15 0 12 -46 -4
-59 -7 -6 -16 -37 -20 -69 -9 -83 34 -198 115 -308 75 -101 125 -120 221 -82
l59 23 -1 282 c-2 277 -2 283 -22 283 -11 0 -22 8 -25 18 -3 14 -11 18 -28 14
-19 -3 -24 1 -30 27 -8 37 -14 38 -37 9z"/>
<path d="M548 1185 c-10 -13 -18 -31 -18 -39 0 -8 -5 -18 -11 -22 -22 -13 -86
-7 -117 12 -37 21 -50 14 -34 -21 11 -24 9 -27 -23 -42 -33 -16 -46 -33 -25
-33 15 0 12 -32 -4 -56 -24 -34 -30 -125 -12 -178 32 -95 124 -239 171 -270
40 -26 115 -32 156 -11 44 22 63 45 104 129 43 86 58 159 53 252 -3 64 -7 77
-32 103 -16 16 -41 35 -57 41 -33 14 -33 14 -19 41 9 16 7 19 -11 19 -12 0
-23 8 -26 19 -3 14 -13 19 -31 18 -22 -2 -28 3 -30 23 -5 37 -15 41 -34 15z"/>
<path d="M1603 1186 c-13 -16 -23 -37 -23 -47 0 -13 -8 -20 -22 -21 -45 -2
-82 4 -104 19 -29 19 -48 9 -34 -17 16 -30 12 -38 -26 -50 -26 -9 -33 -15 -25
-23 16 -16 14 -44 -5 -73 -26 -39 -15 -166 20 -235 39 -76 104 -170 137 -197
41 -34 114 -40 165 -14 117 60 200 341 137 464 -7 15 -32 37 -54 49 -35 17
-40 24 -35 45 5 20 3 24 -15 24 -12 0 -23 8 -26 18 -3 13 -11 18 -27 15 -19
-4 -24 1 -32 34 l-9 38 -22 -29z"/>
<path d="M2658 1193 c-9 -10 -20 -30 -23 -45 -5 -19 -14 -28 -29 -30 -44 -3
-81 4 -97 18 -28 25 -42 17 -35 -20 6 -31 4 -35 -24 -44 -32 -12 -37 -21 -19
-39 8 -8 6 -20 -6 -42 -50 -97 -18 -234 89 -380 57 -77 78 -92 137 -97 44 -4
61 -1 94 18 85 50 150 201 150 350 0 99 -14 127 -78 161 -39 20 -45 35 -25 55
9 9 6 12 -14 12 -17 0 -29 7 -33 19 -4 13 -12 17 -25 14 -13 -4 -22 1 -26 13
-18 57 -18 57 -36 37z"/>
<path d="M3708 1185 c-10 -13 -18 -31 -18 -39 0 -8 -5 -18 -11 -22 -22 -13
-86 -7 -117 12 -37 21 -50 14 -34 -21 11 -24 9 -27 -23 -42 -33 -16 -46 -33
-25 -33 15 0 12 -32 -4 -56 -24 -34 -30 -125 -12 -178 32 -95 124 -239 171
-270 40 -26 115 -32 156 -11 44 22 63 45 104 129 43 86 58 159 53 252 -3 64
-7 77 -32 103 -16 16 -41 35 -57 41 -33 14 -33 14 -19 41 9 16 7 19 -11 19
-12 0 -23 8 -26 19 -3 14 -13 19 -31 18 -22 -2 -28 3 -30 23 -5 37 -15 41 -34
15z"/>
<path d="M4763 1186 c-13 -16 -23 -37 -23 -47 0 -13 -8 -20 -22 -21 -45 -2
-82 4 -104 19 -29 19 -48 9 -34 -17 16 -30 12 -38 -26 -50 -26 -9 -33 -15 -25
-23 16 -16 14 -44 -5 -73 -26 -39 -15 -166 20 -235 39 -76 104 -170 137 -197
41 -34 114 -40 165 -14 117 60 200 341 137 464 -7 15 -32 37 -54 49 -35 17
-40 24 -35 45 5 20 3 24 -15 24 -12 0 -23 8 -26 18 -3 13 -11 18 -27 15 -19
-4 -24 1 -32 34 l-9 38 -22 -29z"/>
<path d="M5818 1193 c-9 -10 -20 -30 -23 -45 -5 -19 -14 -28 -29 -30 -44 -3
-81 4 -97 18 -28 25 -42 17 -35 -20 6 -31 4 -35 -24 -44 -32 -12 -37 -21 -19
-39 8 -8 6 -20 -6 -42 -50 -97 -18 -234 89 -380 57 -77 78 -92 137 -97 44 -4
61 -1 94 18 85 50 150 201 150 350 0 99 -14 127 -78 161 -39 20 -45 35 -25 55
9 9 6 12 -14 12 -17 0 -29 7 -33 19 -4 13 -12 17 -25 14 -13 -4 -22 1 -26 13
-18 57 -18 57 -36 37z"/>
<path d="M6868 1185 c-10 -13 -18 -31 -18 -39 0 -8 -5 -18 -11 -22 -22 -13
-86 -7 -117 12 -37 21 -50 14 -34 -21 11 -24 9 -27 -23 -42 -33 -16 -46 -33
-25 -33 15 0 12 -32 -4 -56 -24 -34 -30 -125 -12 -178 32 -95 124 -239 171
-270 40 -26 115 -32 156 -11 44 22 63 45 104 129 43 86 58 159 53 252 -3 64
-7 77 -32 103 -16 16 -41 35 -57 41 -33 14 -33 14 -19 41 9 16 7 19 -11 19
-12 0 -23 8 -26 19 -3 14 -13 19 -31 18 -22 -2 -28 3 -30 23 -5 37 -15 41 -34
15z"/>
<path d="M7923 1186 c-13 -16 -23 -37 -23 -47 0 -13 -8 -20 -22 -21 -45 -2
-82 4 -104 19 -29 19 -48 9 -34 -17 16 -30 12 -38 -26 -50 -26 -9 -33 -15 -25
-23 16 -16 14 -44 -5 -73 -26 -39 -15 -166 20 -235 39 -76 104 -170 137 -197
41 -34 114 -40 165 -14 117 60 200 341 137 464 -7 15 -32 37 -54 49 -35 17
-40 24 -35 45 5 20 3 24 -15 24 -12 0 -23 8 -26 18 -3 13 -11 18 -27 15 -19
-4 -24 1 -32 34 l-9 38 -22 -29z"/>
<path d="M8978 1193 c-9 -10 -20 -30 -23 -45 -5 -19 -14 -28 -29 -30 -44 -3
-81 4 -97 18 -28 25 -42 17 -35 -20 6 -31 4 -35 -24 -44 -32 -12 -37 -21 -19
-39 8 -8 6 -20 -6 -42 -50 -97 -18 -234 89 -380 57 -77 78 -92 137 -97 44 -4
61 -1 94 18 85 50 150 201 150 350 0 99 -14 127 -78 161 -39 20 -45 35 -25 55
9 9 6 12 -14 12 -17 0 -29 7 -33 19 -4 13 -12 17 -25 14 -13 -4 -22 1 -26 13
-18 57 -18 57 -36 37z"/>
<path d="M10028 1185 c-10 -13 -18 -31 -18 -39 0 -8 -5 -18 -11 -22 -22 -13
-86 -7 -117 12 -37 21 -50 14 -34 -21 11 -24 9 -27 -23 -42 -33 -16 -46 -33
-25 -33 15 0 12 -32 -4 -56 -24 -34 -30 -125 -12 -178 32 -95 124 -239 171
-270 40 -26 115 -32 156 -11 44 22 63 45 104 129 43 86 58 159 53 252 -3 64
-7 77 -32 103 -16 16 -41 35 -57 41 -33 14 -33 14 -19 41 9 16 7 19 -11 19
-12 0 -23 8 -26 19 -3 14 -13 19 -31 18 -22 -2 -28 3 -30 23 -5 37 -15 41 -34
15z"/>
<path d="M11083 1186 c-13 -16 -23 -37 -23 -47 0 -13 -8 -20 -22 -21 -45 -2
-82 4 -104 19 -29 19 -48 9 -34 -17 16 -30 12 -38 -26 -50 -26 -9 -33 -15 -25
-23 16 -16 14 -44 -5 -73 -26 -39 -15 -166 20 -235 39 -76 104 -170 137 -197
41 -34 114 -40 165 -14 117 60 200 341 137 464 -7 15 -32 37 -54 49 -35 17
-40 24 -35 45 5 20 3 24 -15 24 -12 0 -23 8 -26 18 -3 13 -11 18 -27 15 -19
-4 -24 1 -32 34 l-9 38 -22 -29z"/>
<path d="M12138 1193 c-9 -10 -20 -30 -23 -45 -5 -19 -14 -28 -29 -30 -44 -3
-81 4 -97 18 -28 25 -42 17 -35 -20 6 -31 4 -35 -24 -44 -32 -12 -37 -21 -19
-39 8 -8 6 -20 -6 -42 -50 -97 -18 -234 89 -380 57 -77 78 -92 137 -97 44 -4
61 -1 94 18 85 50 150 201 150 350 0 99 -14 127 -78 161 -39 20 -45 35 -25 55
9 9 6 12 -14 12 -17 0 -29 7 -33 19 -4 13 -12 17 -25 14 -13 -4 -22 1 -26 13
-18 57 -18 57 -36 37z"/>
<path d="M22 713 l-22 -15 0 -329 0 -329 38 0 c99 0 174 89 218 260 19 74 15
170 -9 216 -8 16 -34 40 -56 53 -32 17 -41 28 -39 44 2 13 -2 22 -10 22 -8 0
-19 8 -26 17 -7 9 -20 16 -30 15 -13 -1 -22 8 -30 29 -10 30 -12 31 -34 17z"/>
<path d="M1071 704 c-11 -15 -21 -32 -21 -39 0 -28 -118 -23 -135 5 -15 25
-26 8 -20 -30 6 -33 4 -40 -10 -40 -9 0 -25 -5 -36 -11 -19 -10 -20 -11 -3
-23 16 -12 16 -16 -6 -59 -33 -66 -25 -161 20 -249 51 -97 108 -177 143 -199
40 -24 114 -25 161 -2 78 37 146 182 153 328 5 110 -10 148 -75 183 -33 19
-41 28 -37 43 4 10 2 19 -4 19 -5 0 -17 8 -27 18 -10 9 -27 17 -38 17 -15 0
-22 7 -24 25 -6 39 -18 44 -41 14z"/>
<path d="M2129 712 c-9 -9 -19 -27 -23 -39 -12 -37 -80 -40 -134 -5 -29 19
-37 10 -24 -28 11 -29 9 -31 -24 -45 -31 -13 -33 -16 -23 -34 10 -16 9 -24 -6
-48 -14 -21 -19 -47 -20 -103 0 -66 4 -84 34 -145 41 -82 96 -161 141 -198 59
-50 179 -28 229 42 66 92 105 240 91 342 -8 56 -13 68 -46 97 -21 17 -43 32
-50 32 -17 0 -25 25 -11 39 6 6 8 12 4 12 -4 1 -11 3 -17 4 -5 1 -14 3 -20 4
-5 0 -10 8 -10 17 0 12 -6 15 -24 10 -25 -6 -36 7 -36 45 0 23 -10 23 -31 1z"/>
<path d="M3182 707 c-12 -13 -22 -30 -22 -39 0 -30 -90 -31 -136 -1 -26 17
-35 8 -23 -24 12 -33 13 -31 -26 -47 -32 -14 -34 -17 -23 -35 10 -17 10 -25
-3 -48 -26 -44 -32 -115 -16 -170 30 -98 114 -236 173 -282 33 -26 116 -29
162 -6 117 59 202 339 139 461 -8 16 -34 40 -56 53 -32 17 -41 28 -39 44 2 13
-2 22 -10 22 -8 0 -19 8 -26 17 -7 9 -20 16 -30 15 -13 -1 -22 8 -30 31 l-11
33 -23 -24z"/>
<path d="M4231 704 c-11 -15 -21 -32 -21 -39 0 -28 -118 -23 -135 5 -15 25
-26 8 -20 -30 6 -33 4 -40 -10 -40 -9 0 -25 -5 -36 -11 -19 -10 -20 -11 -3
-23 16 -12 16 -16 -6 -59 -33 -66 -25 -161 20 -249 51 -97 108 -177 143 -199
40 -24 114 -25 161 -2 78 37 146 182 153 328 5 110 -10 148 -75 183 -33 19
-41 28 -37 43 4 10 2 19 -4 19 -5 0 -17 8 -27 18 -10 9 -27 17 -38 17 -15 0
-22 7 -24 25 -6 39 -18 44 -41 14z"/>
<path d="M5289 712 c-9 -9 -19 -27 -23 -39 -12 -37 -80 -40 -134 -5 -29 19
-37 10 -24 -28 11 -29 9 -31 -24 -45 -31 -13 -33 -16 -23 -34 10 -16 9 -24 -6
-48 -14 -21 -19 -47 -20 -103 0 -66 4 -84 34 -145 41 -82 96 -161 141 -198 59
-50 179 -28 229 42 66 92 105 240 91 342 -8 56 -13 68 -46 97 -21 17 -43 32
-50 32 -17 0 -25 25 -11 39 6 6 8 12 4 12 -4 1 -11 3 -17 4 -5 1 -14 3 -20 4
-5 0 -10 8 -10 17 0 12 -6 15 -24 10 -25 -6 -36 7 -36 45 0 23 -10 23 -31 1z"/>
<path d="M6342 707 c-12 -13 -22 -30 -22 -39 0 -30 -90 -31 -136 -1 -26 17
-35 8 -23 -24 12 -33 13 -31 -26 -47 -32 -14 -34 -17 -23 -35 10 -17 10 -25
-3 -48 -26 -44 -32 -115 -16 -170 30 -98 114 -236 173 -282 33 -26 116 -29
162 -6 117 59 202 339 139 461 -8 16 -34 40 -56 53 -32 17 -41 28 -39 44 2 13
-2 22 -10 22 -8 0 -19 8 -26 17 -7 9 -20 16 -30 15 -13 -1 -22 8 -30 31 l-11
33 -23 -24z"/>
<path d="M7391 704 c-11 -15 -21 -32 -21 -39 0 -28 -118 -23 -135 5 -15 25
-26 8 -20 -30 6 -33 4 -40 -10 -40 -9 0 -25 -5 -36 -11 -19 -10 -20 -11 -3
-23 16 -12 16 -16 -6 -59 -33 -66 -25 -161 20 -249 51 -97 108 -177 143 -199
40 -24 114 -25 161 -2 78 37 146 182 153 328 5 110 -10 148 -75 183 -33 19
-41 28 -37 43 4 10 2 19 -4 19 -5 0 -17 8 -27 18 -10 9 -27 17 -38 17 -15 0
-22 7 -24 25 -6 39 -18 44 -41 14z"/>
<path d="M8449 712 c-9 -9 -19 -27 -23 -39 -12 -37 -80 -40 -134 -5 -29 19
-37 10 -24 -28 11 -29 9 -31 -24 -45 -31 -13 -33 -16 -23 -34 10 -16 9 -24 -6
-48 -14 -21 -19 -47 -20 -103 0 -66 4 -84 34 -145 41 -82 96 -161 141 -198 59
-50 179 -28 229 42 66 92 105 240 91 342 -8 56 -13 68 -46 97 -21 17 -43 32
-50 32 -17 0 -25 25 -11 39 6 6 8 12 4 12 -4 1 -11 3 -17 4 -5 1 -14 3 -20 4
-5 0 -10 8 -10 17 0 12 -6 15 -24 10 -25 -6 -36 7 -36 45 0 23 -10 23 -31 1z"/>
<path d="M9502 707 c-12 -13 -22 -30 -22 -39 0 -30 -90 -31 -136 -1 -26 17
-35 8 -23 -24 12 -33 13 -31 -26 -47 -32 -14 -34 -17 -23 -35 10 -17 10 -25
-3 -48 -26 -44 -32 -115 -16 -170 30 -98 114 -236 173 -282 33 -26 116 -29
162 -6 117 59 202 339 139 461 -8 16 -34 40 -56 53 -32 17 -41 28 -39 44 2 13
-2 22 -10 22 -8 0 -19 8 -26 17 -7 9 -20 16 -30 15 -13 -1 -22 8 -30 31 l-11
33 -23 -24z"/>
<path d="M10551 704 c-11 -15 -21 -32 -21 -39 0 -28 -118 -23 -135 5 -15 25
-26 8 -20 -30 6 -33 4 -40 -10 -40 -9 0 -25 -5 -36 -11 -19 -10 -20 -11 -3
-23 16 -12 16 -16 -6 -59 -33 -66 -25 -161 20 -249 51 -97 108 -177 143 -199
40 -24 114 -25 161 -2 78 37 146 182 153 328 5 110 -10 148 -75 183 -33 19
-41 28 -37 43 4 10 2 19 -4 19 -5 0 -17 8 -27 18 -10 9 -27 17 -38 17 -15 0
-22 7 -24 25 -6 39 -18 44 -41 14z"/>
<path d="M11609 712 c-9 -9 -19 -27 -23 -39 -12 -37 -80 -40 -134 -5 -29 19
-37 10 -24 -28 11 -29 9 -31 -24 -45 -31 -13 -33 -16 -23 -34 10 -16 9 -24 -6
-48 -14 -21 -19 -47 -20 -103 0 -66 4 -84 34 -145 41 -82 96 -161 141 -198 59
-50 179 -28 229 42 66 92 105 240 91 342 -8 56 -13 68 -46 97 -21 17 -43 32
-50 32 -17 0 -25 25 -11 39 6 6 8 12 4 12 -4 1 -11 3 -17 4 -5 1 -14 3 -20 4
-5 0 -10 8 -10 17 0 12 -6 15 -24 10 -25 -6 -36 7 -36 45 0 23 -10 23 -31 1z"/>
<path d="M12662 707 c-12 -13 -22 -30 -22 -39 0 -30 -90 -31 -136 -1 -26 17
-35 8 -23 -24 12 -33 13 -31 -26 -47 -32 -14 -34 -17 -23 -35 10 -17 10 -25
-3 -48 -26 -44 -32 -115 -16 -170 30 -98 114 -236 173 -282 36 -28 115 -28
172 -1 l43 21 -1 280 c-1 235 -4 280 -16 275 -7 -3 -19 3 -27 14 -7 10 -21 18
-31 17 -13 -1 -22 8 -30 31 l-11 33 -23 -24z"/>
<path d="M548 233 c-9 -10 -19 -29 -23 -42 -7 -22 -11 -23 -58 -18 -28 4 -55
11 -61 17 -13 13 -46 13 -46 -1 0 -6 5 -19 10 -29 9 -17 5 -22 -25 -34 -31
-13 -34 -18 -24 -34 9 -14 8 -25 -5 -50 -9 -17 -16 -33 -16 -37 0 -3 110 -5
245 -5 135 0 245 2 245 5 0 23 -37 68 -70 85 -47 24 -56 36 -40 55 10 12 9 15
-10 15 -13 0 -24 8 -27 20 -4 15 -11 18 -29 14 -21 -5 -25 -2 -30 25 -7 35
-15 38 -36 14z"/>
<path d="M1602 237 c-6 -7 -16 -25 -21 -41 -10 -25 -15 -27 -54 -25 -23 1 -56
11 -74 21 -35 21 -51 11 -33 -21 14 -28 14 -29 -25 -45 -32 -14 -34 -17 -23
-35 9 -16 9 -25 -2 -48 -8 -15 -16 -31 -18 -35 -2 -5 107 -8 242 -8 270 0 270
0 221 58 -13 16 -39 35 -56 42 -25 11 -30 18 -26 37 3 18 0 23 -15 23 -12 0
-22 9 -25 20 -4 15 -11 19 -24 15 -15 -5 -22 0 -30 24 -12 34 -21 38 -37 18z"/>
<path d="M2651 224 c-11 -15 -21 -33 -21 -41 0 -21 -97 -12 -134 13 l-28 18 6
-40 c7 -39 6 -40 -29 -53 -34 -12 -35 -14 -18 -26 17 -13 17 -15 1 -45 -10
-18 -18 -36 -18 -41 0 -5 101 -9 240 -9 167 0 240 3 240 11 0 26 -36 69 -72
85 -33 15 -38 21 -33 41 4 16 1 23 -9 23 -9 0 -20 9 -26 20 -6 12 -19 19 -32
17 -15 -1 -23 4 -26 18 -7 35 -19 37 -41 9z"/>
<path d="M3708 233 c-9 -10 -19 -29 -23 -42 -7 -22 -11 -23 -58 -18 -28 4 -55
11 -61 17 -13 13 -46 13 -46 -1 0 -6 5 -19 10 -29 9 -17 5 -22 -25 -34 -31
-13 -34 -18 -24 -34 9 -14 8 -25 -5 -50 -9 -17 -16 -33 -16 -37 0 -3 110 -5
245 -5 135 0 245 2 245 5 0 23 -37 68 -70 85 -47 24 -56 36 -40 55 10 12 9 15
-10 15 -13 0 -24 8 -27 20 -4 15 -11 18 -29 14 -21 -5 -25 -2 -30 25 -7 35
-15 38 -36 14z"/>
<path d="M4762 237 c-6 -7 -16 -25 -21 -41 -10 -25 -15 -27 -54 -25 -23 1 -56
11 -74 21 -35 21 -51 11 -33 -21 14 -28 14 -29 -25 -45 -32 -14 -34 -17 -23
-35 9 -16 9 -25 -2 -48 -8 -15 -16 -31 -18 -35 -2 -5 107 -8 242 -8 270 0 270
0 221 58 -13 16 -39 35 -56 42 -25 11 -30 18 -26 37 3 18 0 23 -15 23 -12 0
-22 9 -25 20 -4 15 -11 19 -24 15 -15 -5 -22 0 -30 24 -12 34 -21 38 -37 18z"/>
<path d="M5811 224 c-11 -15 -21 -33 -21 -41 0 -21 -97 -12 -134 13 l-28 18 6
-40 c7 -39 6 -40 -29 -53 -34 -12 -35 -14 -18 -26 17 -13 17 -15 1 -45 -10
-18 -18 -36 -18 -41 0 -5 101 -9 240 -9 167 0 240 3 240 11 0 26 -36 69 -72
85 -33 15 -38 21 -33 41 4 16 1 23 -9 23 -9 0 -20 9 -26 20 -6 12 -19 19 -32
17 -15 -1 -23 4 -26 18 -7 35 -19 37 -41 9z"/>
<path d="M6868 233 c-9 -10 -19 -29 -23 -42 -7 -22 -11 -23 -58 -18 -28 4 -55
11 -61 17 -13 13 -46 13 -46 -1 0 -6 5 -19 10 -29 9 -17 5 -22 -25 -34 -31
-13 -34 -18 -24 -34 9 -14 8 -25 -5 -50 -9 -17 -16 -33 -16 -37 0 -3 110 -5
245 -5 135 0 245 2 245 5 0 23 -37 68 -70 85 -47 24 -56 36 -40 55 10 12 9 15
-10 15 -13 0 -24 8 -27 20 -4 15 -11 18 -29 14 -21 -5 -25 -2 -30 25 -7 35
-15 38 -36 14z"/>
<path d="M7922 237 c-6 -7 -16 -25 -21 -41 -10 -25 -15 -27 -54 -25 -23 1 -56
11 -74 21 -35 21 -51 11 -33 -21 14 -28 14 -29 -25 -45 -32 -14 -34 -17 -23
-35 9 -16 9 -25 -2 -48 -8 -15 -16 -31 -18 -35 -2 -5 107 -8 242 -8 270 0 270
0 221 58 -13 16 -39 35 -56 42 -25 11 -30 18 -26 37 3 18 0 23 -15 23 -12 0
-22 9 -25 20 -4 15 -11 19 -24 15 -15 -5 -22 0 -30 24 -12 34 -21 38 -37 18z"/>
<path d="M8971 224 c-11 -15 -21 -33 -21 -41 0 -21 -97 -12 -134 13 l-28 18 6
-40 c7 -39 6 -40 -29 -53 -34 -12 -35 -14 -18 -26 17 -13 17 -15 1 -45 -10
-18 -18 -36 -18 -41 0 -5 101 -9 240 -9 167 0 240 3 240 11 0 26 -36 69 -72
85 -33 15 -38 21 -33 41 4 16 1 23 -9 23 -9 0 -20 9 -26 20 -6 12 -19 19 -32
17 -15 -1 -23 4 -26 18 -7 35 -19 37 -41 9z"/>
<path d="M10028 233 c-9 -10 -19 -29 -23 -42 -7 -22 -11 -23 -58 -18 -28 4
-55 11 -61 17 -13 13 -46 13 -46 -1 0 -6 5 -19 10 -29 9 -17 5 -22 -25 -34
-31 -13 -34 -18 -24 -34 9 -14 8 -25 -5 -50 -9 -17 -16 -33 -16 -37 0 -3 110
-5 245 -5 135 0 245 2 245 5 0 23 -37 68 -70 85 -47 24 -56 36 -40 55 10 12 9
15 -10 15 -13 0 -24 8 -27 20 -4 15 -11 18 -29 14 -21 -5 -25 -2 -30 25 -7 35
-15 38 -36 14z"/>
<path d="M11082 237 c-6 -7 -16 -25 -21 -41 -10 -25 -15 -27 -54 -25 -23 1
-56 11 -74 21 -35 21 -51 11 -33 -21 14 -28 14 -29 -25 -45 -32 -14 -34 -17
-23 -35 9 -16 9 -25 -2 -48 -8 -15 -16 -31 -18 -35 -2 -5 107 -8 242 -8 270 0
270 0 221 58 -13 16 -39 35 -56 42 -25 11 -30 18 -26 37 3 18 0 23 -15 23 -12
0 -22 9 -25 20 -4 15 -11 19 -24 15 -15 -5 -22 0 -30 24 -12 34 -21 38 -37 18z"/>
<path d="M12131 224 c-11 -15 -21 -33 -21 -41 0 -21 -97 -12 -134 13 l-28 18
6 -40 c7 -39 6 -40 -29 -53 -34 -12 -35 -14 -18 -26 17 -13 17 -15 1 -45 -10
-18 -18 -36 -18 -41 0 -5 101 -9 240 -9 167 0 240 3 240 11 0 26 -36 69 -72
85 -33 15 -38 21 -33 41 4 16 1 23 -9 23 -9 0 -20 9 -26 20 -6 12 -19 19 -32
17 -15 -1 -23 4 -26 18 -7 35 -19 37 -41 9z"/>
</g>
</svg>
